<?xml version="1.0" encoding="iso-8859-1"?>
<!-- Generator: Adobe Illustrator 18.0.0, SVG Export Plug-In . SVG Version: 6.00 Build 0)  -->
<!DOCTYPE svg PUBLIC "-//W3C//DTD SVG 1.1//EN" "http://www.w3.org/Graphics/SVG/1.1/DTD/svg11.dtd">
<svg xmlns="http://www.w3.org/2000/svg" xmlns:xlink="http://www.w3.org/1999/xlink" version="1.1" id="Capa_1" x="0px" y="0px" viewBox="0 0 374.59 374.59" style="enable-background:new 0 0 374.59 374.59;" xml:space="preserve" width="512px" height="512px">
<g>
	<path d="M364.59,55.799H46.736c-5.523,0-10,4.477-10,10v40.261H10c-5.523,0-10,4.477-10,10v97.425c0,5.523,4.477,10,10,10h26.736   v85.306c0,5.523,4.477,10,10,10H364.59c5.522,0,10-4.477,10-10V65.799C374.59,60.276,370.112,55.799,364.59,55.799z M20,126.06h148   v64.379c0,1.07,0.172,2.132,0.508,3.147l10.655,32.131l-40.908-21.118c-1.418-0.732-2.991-1.114-4.587-1.114H20V126.06z    M315.967,298.791H56.736v-75.306h74.503l60.551,31.259c1.448,0.748,3.021,1.114,4.585,1.114c2.334,0,4.648-0.816,6.499-2.398   c3.091-2.641,4.274-6.89,2.995-10.749L188,188.824V116.06c0-5.523-4.478-10-10-10H56.736V75.799h259.23V298.791z M339.33,190.959   h-3.363v-20h3.363c5.522,0,10,4.477,10,10C349.33,186.482,344.853,190.959,339.33,190.959z" fill="#FFFFFF"/>
	<g>
		<path d="M75.521,145.736c-0.331-0.874-1.168-1.454-2.103-1.454c-0.003,0-0.003,0-0.005,0l-3.785,0.008    c-0.936,0.002-1.773,0.585-2.101,1.463l-13.155,35.347c-0.258,0.689-0.16,1.46,0.259,2.065c0.421,0.604,1.109,0.964,1.846,0.964    h3.424c0.938,0,1.777-0.583,2.104-1.462l3.891-10.454h11.371l3.943,10.462c0.33,0.875,1.166,1.454,2.102,1.454h3.43    c0.003,0,0.008,0,0.013,0c1.24,0,2.246-1.005,2.246-2.246c0-0.362-0.087-0.706-0.24-1.009L75.521,145.736z M68.763,164.512    l2.785-7.481l2.818,7.481H68.763z" fill="#FFFFFF"/>
		<path d="M108.734,144.128H94.507c-1.239,0-2.246,1.005-2.246,2.246v35.294c0,1.24,1.007,2.246,2.246,2.246h14.228    c11.186,0,20.284-8.914,20.284-19.871C129.018,153.063,119.92,144.128,108.734,144.128z M108.734,176.213h-8.772v-24.385h8.772    c6.939,0,12.584,5.48,12.584,12.215C121.318,170.754,115.674,176.213,108.734,176.213z" fill="#FFFFFF"/>
	</g>
</g>
<g>
</g>
<g>
</g>
<g>
</g>
<g>
</g>
<g>
</g>
<g>
</g>
<g>
</g>
<g>
</g>
<g>
</g>
<g>
</g>
<g>
</g>
<g>
</g>
<g>
</g>
<g>
</g>
<g>
</g>
</svg>
