<?xml version="1.0" encoding="iso-8859-1"?>
<!-- Generator: Adobe Illustrator 19.0.0, SVG Export Plug-In . SVG Version: 6.00 Build 0)  -->
<svg xmlns="http://www.w3.org/2000/svg" xmlns:xlink="http://www.w3.org/1999/xlink" version="1.1" id="Capa_1" x="0px" y="0px" viewBox="0 0 490 490" style="enable-background:new 0 0 490 490;" xml:space="preserve" width="512px" height="512px">
<g>
	<path d="M0,444.063h490V45.938H0V444.063z M15.313,61.25h459.375v367.5H15.313V61.25z" fill="#FFFFFF"/>
	<path d="M245,130.156c-63.427,0-114.844,51.417-114.844,114.844S181.573,359.844,245,359.844S359.844,308.427,359.844,245   S308.427,130.156,245,130.156z M245,344.531c-54.882,0-99.531-44.65-99.531-99.531s44.65-99.531,99.531-99.531   s99.531,44.65,99.531,99.531S299.882,344.531,245,344.531z" fill="#FFFFFF"/>
	<polygon points="215.288,296.59 304.514,245.075 215.288,193.56  " fill="#FFFFFF"/>
</g>
<g>
</g>
<g>
</g>
<g>
</g>
<g>
</g>
<g>
</g>
<g>
</g>
<g>
</g>
<g>
</g>
<g>
</g>
<g>
</g>
<g>
</g>
<g>
</g>
<g>
</g>
<g>
</g>
<g>
</g>
</svg>
