<?xml version="1.0" encoding="iso-8859-1"?>
<!-- Generator: Adobe Illustrator 18.0.0, SVG Export Plug-In . SVG Version: 6.00 Build 0)  -->
<!DOCTYPE svg PUBLIC "-//W3C//DTD SVG 1.1//EN" "http://www.w3.org/Graphics/SVG/1.1/DTD/svg11.dtd">
<svg xmlns="http://www.w3.org/2000/svg" xmlns:xlink="http://www.w3.org/1999/xlink" version="1.1" id="Capa_1" x="0px" y="0px" viewBox="0 0 290.809 290.809" style="enable-background:new 0 0 290.809 290.809;" xml:space="preserve" width="512px" height="512px">
<g>
	<path d="M287.879,240.896l-20.249-20.249c3.798-0.394,7.097-2.945,8.395-6.595c0.896-2.517,0.757-5.232-0.391-7.645   c-1.145-2.413-3.164-4.234-5.68-5.129l-35.799-12.734c-1.079-0.382-2.204-0.576-3.347-0.576c-2.673,0-5.185,1.04-7.071,2.927   c-2.715,2.714-3.638,6.805-2.352,10.423l12.24,34.407c1.415,3.978,5.201,6.65,9.422,6.65c1.141,0,2.269-0.195,3.353-0.58   c3.48-1.238,5.851-4.219,6.48-7.613l20.855,20.855c1.888,1.889,4.399,2.93,7.071,2.93s5.184-1.041,7.07-2.928   c1.89-1.889,2.93-4.4,2.93-7.072S289.769,242.785,287.879,240.896z" fill="#FFFFFF"/>
	<polygon points="102.277,103.438 111.01,103.438 106.617,91.78  " fill="#FFFFFF"/>
	<path d="M164.566,83.674h-13.671v37.999h13.671c10.813,0,19.609-8.507,19.609-18.964C184.176,92.213,175.379,83.674,164.566,83.674   z" fill="#FFFFFF"/>
	<path d="M270.41,158.512V47.17c0-7.901-6.427-14.329-14.326-14.329H14.328C6.428,32.841,0,39.269,0,47.17v111.342   c0,7.901,6.428,14.329,14.328,14.329h241.756C263.983,172.841,270.41,166.413,270.41,158.512z M130.314,134.007   c-0.008,0-0.014,0-0.02,0h-5.344c-1.457,0-2.762-0.902-3.275-2.266l-6.144-16.304h-17.72l-6.063,16.29   c-0.51,1.371-1.818,2.279-3.279,2.279h-5.336c-1.146,0-2.221-0.561-2.875-1.503c-0.654-0.941-0.805-2.144-0.406-3.218   l20.502-55.082c0.51-1.368,1.814-2.276,3.273-2.279l5.898-0.012h0.008c1.457,0,2.761,0.902,3.275,2.266l20.633,54.755   c0.238,0.473,0.373,1.007,0.373,1.573C133.814,132.44,132.248,134.007,130.314,134.007z M164.566,133.673h-22.171   c-1.933,0-3.5-1.567-3.5-3.5V75.174c0-1.933,1.567-3.5,3.5-3.5h22.171c17.43,0,31.609,13.922,31.609,31.035   C196.176,119.783,181.996,133.673,164.566,133.673z" fill="#FFFFFF"/>
</g>
<g>
</g>
<g>
</g>
<g>
</g>
<g>
</g>
<g>
</g>
<g>
</g>
<g>
</g>
<g>
</g>
<g>
</g>
<g>
</g>
<g>
</g>
<g>
</g>
<g>
</g>
<g>
</g>
<g>
</g>
</svg>
