<?xml version="1.0" encoding="utf-8"?>
<!-- Generator: Adobe Illustrator 16.0.0, SVG Export Plug-In . SVG Version: 6.00 Build 0)  -->
<!DOCTYPE svg PUBLIC "-//W3C//DTD SVG 1.1//EN" "http://www.w3.org/Graphics/SVG/1.1/DTD/svg11.dtd">
<svg version="1.1" id="Слой_1" xmlns="http://www.w3.org/2000/svg" xmlns:xlink="http://www.w3.org/1999/xlink" x="0px" y="0px"
	 width="100%" viewBox="0 0 600.692 231.219" enable-background="new 0 0 600.692 231.219"
	 xml:space="preserve">
<g>
	<rect x="37.134" y="73.614" opacity="0.5" fill="#F0DFC3" width="540.177" height="83.992"/>
	<linearGradient id="SVGID_1_" gradientUnits="userSpaceOnUse" x1="0" y1="115.6099" x2="600.6924" y2="115.6099">
		<stop  offset="0" style="stop-color:#BFA866"/>
		<stop  offset="0.1012" style="stop-color:#D6C799"/>
		<stop  offset="0.2218" style="stop-color:#BE9B5E"/>
		<stop  offset="0.3541" style="stop-color:#DFC483"/>
		<stop  offset="0.4942" style="stop-color:#C9AA5F"/>
		<stop  offset="0.6187" style="stop-color:#D5C390"/>
		<stop  offset="0.7549" style="stop-color:#B69C54"/>
		<stop  offset="0.8911" style="stop-color:#DDCA92"/>
		<stop  offset="1" style="stop-color:#BFA866"/>
	</linearGradient>
	<path fill="url(#SVGID_1_)" d="M569.456,50.233v-9.027H457.108h-6.482h-49.939V24.701h-29.281V16.45h-48.736L306.222,0
		l-11.176,11.177l-3.241,3.242l-2.031,2.031H243.04v8.251h-28.484v16.505h-49.939h-6.483H44.987v9.027H13.753v23.98H0v36.912v25.25
		v20.631h13.753v23.98h31.234v9.027h113.146h6.483h49.939v16.504h28.484v8.254h46.733l2.031,2.029l3.241,3.242l11.176,11.176
		l16.447-16.447h48.736v-8.254h29.281v-16.504h49.939h6.482h112.348v-9.027h31.236v-44.611v-25.25V50.233H569.456z M564.872,45.792
		v4.441h-98.736l-4.442-4.441H564.872z M371.405,45.792v-4.585V29.287h24.696v11.919v4.585v4.441h-24.696V45.792z M396.102,54.819
		h4.585v-4.586v-4.441h54.523l4.443,4.441l4.584,4.586l2.893,2.893l4.585,4.584l2.15,2.15h-103.2l-6.735-6.734l-2.892-2.893
		l-4.585-4.586l-4.442-4.441h14.811v4.441v4.586h4.584H396.102z M577.311,111.125v25.25v21.23h-87.793h-6.483h-107.67h-12.968
		H335.28h-6.483h-43.15h-6.483h-25.112h-12.968H132.207h-6.482H37.134v-21.23v-25.25V73.614h88.591h6.482h108.876h12.968h25.112
		h6.483h43.15h6.483h27.116h12.968h107.67h6.483h87.793V111.125z M341.832,166.776l-33.318,33.316v-33.316h29.451H341.832z
		 M303.929,166.776v33.268l-33.269-33.268h5.818H303.929z M270.66,64.446l33.269-33.271v33.271h-27.45H270.66z M308.514,64.446
		V31.127l33.318,33.319h-3.867H308.514z M366.821,21.033v3.668v4.586v11.919h-15.646h-3.749l-0.836-0.836l-19.336-19.337H366.821z
		 M298.157,21.033l0.131-0.133l3.241-3.24l1.212-1.21l1.188-1.189l2.293-2.293l2.292,2.293l1.188,1.189l1.235,1.235l3.241,3.24
		l0.108,0.107l20.171,20.173l4.585,4.585l18.655,18.654h-9.385l-38.826-38.828l-0.974-0.974l-2.268-2.268l-2.317,2.316l-0.924,0.925
		l-38.827,38.828h-9.433L273.4,45.792l4.584-4.585L298.157,21.033z M247.624,29.287v-4.586v-3.668h37.565L268.653,37.57
		l-3.636,3.636h-0.949h-16.444V29.287z M219.14,45.792v-4.585V29.287h23.9v11.919v4.585v4.441h-23.9V45.792z M160.031,45.792h54.524
		v4.441v4.586h4.584h23.9h4.584v-4.586v-4.441h12.809l-4.443,4.441l-14.212,14.213H141.376l2.15-2.15l4.585-4.584l2.892-2.893
		l4.585-4.586L160.031,45.792z M49.572,45.792h103.977l-4.443,4.441H49.572V45.792z M13.753,152.422H4.585v-16.047v-25.25V78.799
		h9.168v32.326v25.25V152.422z M18.338,176.403v-19.396v-20.631v-25.25V74.213V54.819h26.649h4.585h94.948l-2.892,2.893
		l-4.585,4.584l-2.15,2.15H27.965v46.68v25.25v30.4h106.929l2.15,2.15l4.585,4.584l2.892,2.893H49.572h-4.585H18.338z
		 M49.572,185.43v-4.443h99.533l4.443,4.443H49.572z M243.04,185.43v4.584v11.92h-23.9v-11.92v-4.584v-4.443h23.9V185.43z
		 M219.14,176.403h-4.584v4.584v4.443h-54.524l-4.443-4.443l-4.585-4.584l-2.892-2.893l-4.585-4.584l-2.15-2.15h100.401
		l14.212,14.211l4.443,4.443h-12.809v-4.443v-4.584h-4.584H219.14z M247.624,210.186v-3.668v-4.584v-11.92h16.444h0.949l3.636,3.635
		l16.536,16.537H247.624z M314.287,210.186l-0.108,0.109l-3.241,3.24l-1.235,1.236l-1.188,1.188l-2.292,2.291l-2.293-2.291
		l-1.188-1.188l-1.212-1.213l-3.241-3.24l-0.131-0.133l-20.173-20.172l-4.584-4.584l-18.655-18.654h9.433l38.827,38.826l0.924,0.924
		l2.317,2.318l2.268-2.27l0.974-0.973l38.826-38.826h9.385l-18.655,18.654l-4.585,4.584L314.287,210.186z M366.821,201.934v4.584
		v3.668h-39.567l19.336-19.336l0.836-0.836h3.749h15.646V201.934z M396.102,185.43v4.584v11.92h-24.696v-11.92v-4.584v-4.443h24.696
		V185.43z M455.21,185.43h-54.523v-4.443v-4.584h-4.585h-24.696h-4.584v4.584v4.443h-14.811l4.442-4.443l4.585-4.584l2.892-2.893
		l6.735-6.734h103.2l-2.15,2.15l-4.585,4.584l-2.893,2.893l-4.584,4.584L455.21,185.43z M564.872,185.43H461.693l4.442-4.443h98.736
		V185.43z M596.107,136.375v40.027h-26.651h-4.584h-94.151l2.892-2.893l4.585-4.584l2.15-2.15h106.132v-30.4v-25.25v-46.68H480.348
		l-2.15-2.15l-4.585-4.584l-2.892-2.893h94.151h4.584h26.651v56.307V136.375z"/>
</g>
</svg>
