<?xml version="1.0" encoding="utf-8"?>
<!-- Generator: Adobe Illustrator 16.0.0, SVG Export Plug-In . SVG Version: 6.00 Build 0)  -->
<!DOCTYPE svg PUBLIC "-//W3C//DTD SVG 1.1//EN" "http://www.w3.org/Graphics/SVG/1.1/DTD/svg11.dtd">
<svg version="1.1" id="Слой_1" xmlns="http://www.w3.org/2000/svg" xmlns:xlink="http://www.w3.org/1999/xlink" x="0px" y="0px"
	 width="100%"  viewBox="0 0 1765.189 2869.069" enable-background="new 0 0 1765.189 2869.069"
	 xml:space="preserve">
<linearGradient id="SVGID_1_" gradientUnits="userSpaceOnUse" x1="73.5039" y1="2835.9199" x2="1691.6844" y2="33.1487">
	<stop  offset="0" style="stop-color:#BFA866"/>
	<stop  offset="0.1012" style="stop-color:#D6C799"/>
	<stop  offset="0.2218" style="stop-color:#BE9B5E"/>
	<stop  offset="0.3541" style="stop-color:#DFC483"/>
	<stop  offset="0.4942" style="stop-color:#C9AA5F"/>
	<stop  offset="0.6187" style="stop-color:#D5C390"/>
	<stop  offset="0.7549" style="stop-color:#B69C54"/>
	<stop  offset="0.8911" style="stop-color:#DDCA92"/>
	<stop  offset="1" style="stop-color:#BFA866"/>
</linearGradient>
<path fill="url(#SVGID_1_)" d="M1765.189,2263.942l-15.65-15.65v-801.223v-25.07V620.778l15.65-15.649l-42.15-42.15v-55.98
	l2.25-2.25l9.75-9.75l0.25-0.25v-14.143V371.48v-14.143l-6.719-6.718l-24.031-24.032v-2.018h10.5h1.465h3.535v-1.928v-0.572v-1.035
	v-1.465v-6.5v-4.57v-41.93v-1.465v-6.035v-1.035V233.57v-5.5v-10v-68.605v-14.143v-10.148v-14.143V66.07v-10h-5h-10.5v-10.5v-5h-10
	h-44.961h-14.143h-10.148h-14.143h-68.605h-5h-5h-4h-1.5h-33h-9.465h-7.071h-2.965h-38.5h-19.93l-1.035-1.035l-1.465-1.465
	l-5.498-5.498l-2.502-2.502l-8.535-8.535l-1.465-1.465h-14.143h-9.323h-0.605h-42.432l-2.498-2.498L1309.035,0l-17.572,17.572
	l-15,15l-5.5,5.498h-44.426h-6.072h-20.928h-2.535H931.977l-8.754-8.754l-8.756,8.754l-4.998,5l-26.875,26.873L855.721,43.07
	l-4.998-5l-8.756-8.754l-8.754,8.754H568.186h-2.535h-20.929h-6.071h-44.427l-5.5-5.498l-15-15L456.152,0l-17.571,17.572l-2.5,2.498
	H393.65h-0.606h-9.322h-14.143l-1.465,1.465l-8.535,8.535l-2.5,2.502l-5.5,5.498l-1.465,1.465l-1.035,1.035H329.15h-38.5h-2.965
	h-7.07h-9.465h-33h-1.5h-4h-5h-5h-68.605h-14.143h-10.148h-14.143H70.65h-10v5v10.5h-10.5h-5v10v44.961v14.143v10.148v14.143v68.605
	v10v5.5v24.465v1.035v6.035v1.465v41.93v4.57v6.5v1.465v1.035v0.572v1.928h3.535h1.465h10.5v2.018L36.618,350.62l-6.718,6.718
	v14.143v109.125v14.143l0.25,0.25l9.75,9.75l2.25,2.25v55.98L0,605.129l15.649,15.649v801.221v25.07v801.223L0,2263.942
	l42.15,42.148v55.98l-2.25,2.25l-9.75,9.75l-0.25,0.25v14.143v109.125v14.143l6.718,6.719l24.032,24.031v2.018h-10.5h-1.465H45.15
	v1.928v0.572v1.035v1.465v6.5v4.57v41.93v1.465v6.035v1.035v24.465v5.5v10v68.605v14.143v10.148v14.143v44.961v10h5h10.5v10.5v5h10
	h44.961h14.143h10.148h14.143h68.605h5h5h4h1.5h33h9.465h7.07h2.965h38.5h19.929l1.035,1.035l1.465,1.465l5.5,5.498l2.5,2.502
	l8.535,8.535l1.465,1.465h14.143h9.322h0.606h42.431l2.5,2.498l17.571,17.572l17.571-17.572l15-15l5.5-5.498h44.427h6.071h20.929
	h2.535h265.027l8.754,8.754l8.756-8.754l4.998-5l26.873-26.873l26.875,26.873l4.998,5l8.756,8.754l8.754-8.754h265.025h2.535h20.928
	h6.072h44.426l5.5,5.498l15,15l17.572,17.572l17.572-17.572l2.498-2.498h42.432h0.605h9.323h14.143l1.465-1.465l8.535-8.535
	l2.502-2.502l5.498-5.498l1.465-1.465l1.035-1.035h19.93h38.5h2.965h7.071h9.465h33h1.5h4h5h5h68.605h14.143h10.148h14.143h44.961
	h10v-5v-10.5h10.5h5v-10v-44.961v-14.143v-10.148v-14.143v-68.605v-10v-5.5v-24.465v-1.035v-6.035v-1.465v-41.93v-4.57v-6.5v-1.465
	v-1.035v-0.572v-1.928h-3.535h-1.465h-10.5v-2.018l24.031-24.031l6.719-6.719v-14.143v-109.125v-14.143l-0.25-0.25l-9.75-9.75
	l-2.25-2.25v-55.98L1765.189,2263.942z M1704.539,109.674V95.531V66.07h10.5v39.961v14.143v20.148l-10.5,10.5V109.674z
	 M1704.539,164.965l10.5-10.5v63.605h-10.5V164.965z M1704.539,307.143V295.07V293v-26.43v-7.5v-7.5v-1.5v-1.5v-15v-5.5h10.5v5.5v15
	v3v7.5v7.5v36.93v9.57v4.572v1.928h-10.5V307.143z M60.65,2759.396v14.143v29.461h-10.5v-39.961v-14.143v-20.148l10.5-10.5V2759.396
	z M60.65,2704.104l-10.5,10.5v-63.605h10.5V2704.104z M60.65,2561.927v12.072v2.07v26.43v7.5v7.5v1.5v1.5v15v5.5h-10.5v-5.5v-15v-3
	v-7.5v-7.5v-36.93v-9.57v-4.572v-1.928h10.5V2561.927z M1713.539,417.071v-10v-46.929v-8v-2.412l11.75,11.75v129.125l-11.75,11.75
	V417.071z M1708.445,521.591l1.771-1.771l3.322-3.322l1.5-1.5l0.479-0.479l1.77-1.771l0.752-0.751v45.98v7.071l5,5l35.078,35.079
	l-13.943,13.942l-4.635,4.636l-16.5,16.5l-5,5v7.072V747.5v14.143v132.394l-4.5,4.5v-3.128V743v-33.929v-52.292v-7.072v-6.508
	l4.5-4.5l5-5l28.57-28.57l-28.57-28.572l-5-4.999l-4.5-4.5l-10-10l-12.197-12.196l-3.082-3.083l15.279-15.28L1708.445,521.591z
	 M1718.039,1967.964l-4.5-4.5v-69.465l0.303-0.305l-0.303-0.303v-93.898l12.174-12.176l5-5v-335.248v-25.07v-335.247l-5-5
	l-12.174-12.176v-93.898l0.303-0.303l-0.303-0.304v-69.465l4.5-4.5l5-5v-7.07V766.643V752.5V647.279l16.5-16.501v593.437v13.072
	v184.712v25.07v184.713v13.072v593.438l-16.5-16.502v-105.221v-14.143v-122.393v-7.07L1718.039,1967.964z M1720.877,1772.481
	l-7.338-7.338v-94.289v-7.07v-50.932v-7.07v-55.713v-6.07v-44.393v-9.607v-42.93v-25.07v-42.929v-9.607v-44.393V1319v-55.713v-7.07
	v-50.932v-7.07v-94.289l7.338-7.338l4.836-4.836v330.247v25.07v330.248L1720.877,1772.481z M1703.234,964.768l-10.195,10.197
	v-12.858l10.5-10.5v13.465L1703.234,964.768z M1703.539,985.678v73.898l-10.5-10.5v-52.898L1703.539,985.678z M1693.039,955.036
	v-28.93l10.5-10.5v28.93L1693.039,955.036z M1693.039,919.036l-5,5l-1.5,1.5V597.684v-14.612V580v-21.684V554.2l17,17l10,9.999
	l4.5,4.5l5,5l14.428,14.43l-14.428,14.428l-5,5l-4.5,4.5l-10,10v14.143v6.508v7.072v42.292V733v3.071v159.337v13.128
	L1693.039,919.036z M1665.467,394.071l-6.928,6.929l-8,8v-7.663l28.5-28.5v7.663L1665.467,394.071z M1670.039,403.643V465.5
	l-1.5-1.5v-58.857L1670.039,403.643z M1658.539,415.143V454l-19.43-19.429L1658.539,415.143z M1675.039,484.643l1.5,1.5v53.213
	v8.961v4.276v0.905v6.166v23.407v10.204v0.266v10.602v3.275v0.266v326.388v1.465l-1.5,1.5V484.643z M1675.039,470.5v-71.857l4-4l5-5
	l19.5-19.5V499v3.541v9.814l-0.395,0.394l-16.605,16.606v-25.799v-3.873v-3.541v-10.602v-1.47V482l-2.5-2.5l-5-5l-1.5-1.5
	L1675.039,470.5z M1436.038,237.678l-3.93-3.93l3.93-3.93l5-5l17-17l15-15v-14.143V137.76l36.728,36.727l-5.727,5.727l-5,5
	l-26.001,26l-12.762,12.764l12.762,12.762l19.833,19.832l5,5l1.168,1.168l5,5l19.832,19.832l14.572,14.572l14.57-14.572l26-26l5-5
	l3.918-3.918l34.918,34.918h-33.008h-7.908h-6.234h-7.908l-15,15l-17,17l-5,5l-3.93,3.93l-3.93-3.93l-5-5h-14.143h-62.751v-62.75
	v-14.143L1436.038,237.678z M1343.609,76.57h-14.143h-40.865l-12.998-13h66.863h14.143h31.929h5.893h4.107h17.105h9.322
	l11.072,11.072l1.928,1.928h-1.928h-37.5h-10H1343.609z M1388.538,81.57v10.5h-60.429l10.5-10.5H1388.538z M1324.467,81.57
	l-10.5,10.5l-4.932,4.934l-4.934-4.934l-10.498-10.5H1324.467z M1398.538,81.57h37.5h5h1.928l10.5,10.5h-12.428h-5h-37.5V81.57z
	 M1530.748,181.326l-7.072,7.072l-19.637,19.637v-13.68l12.799-12.797l7.07-7.072l8.631-8.631v13.68L1530.748,181.326z
	 M1532.539,186.605v10.654v0.275l-28.5,28.5v-10.93l23.172-23.172L1532.539,186.605z M1519.539,164.713l-2.701,2.703l-43.8-43.799
	V104.57h21.001h7.5h7.5h3h15h5.5v14.605v14.143v18.395L1519.539,164.713z M1527.039,89.57h-15h-3h-7.5h-7.5h-28.931l-8-8h36.931h7.5
	h7.5h3h15h5.5v8H1527.039z M1458.038,102.07v91.605l-17,17V102.07H1458.038z M1527.039,76.57h-15h-3h-7.5h-7.5h-41.931l-10.5-10.5
	h52.431h7.5h7.5h3h15h5.5v10.5H1527.039z M1499.039,199.355v13.68v7.07v10.93v7.07v10.49l-24.622-24.619L1499.039,199.355z
	 M1656.039,228.07v5.5v15v3v7.5v7.5v12.197v8.803h-5.34h-13.707l-41.988-41.988l4.512-4.512l12.998-13h14.777h14.143H1656.039z
	 M1651.434,218.07l4.605-4.605v4.605H1651.434z M1587.932,238.51l-7.07,7.072l-10.988,10.988h-17.299l19.639-19.637l7.07-7.072
	l1.791-1.791h17.299L1587.932,238.51z M1568.678,233.398l-23.174,23.172h-10.93l28.5-28.5h0.275h10.654L1568.678,233.398z
	 M1540.504,261.57h7.07h17.299l-26,26h-0.857l-26-26h10.488h7.07H1540.504z M1566.934,302.57h7.908h77.033h12.092l1.025,1.025
	l14.047,14.047v1.928h-30.021h-14.143h-77.033h-7.908L1566.934,302.57z M1596.375,121.57l-0.588-0.588l16.41-16.412h43.842v43.842
	l-16.412,16.41l-0.588-0.588V121.57H1596.375z M1634.039,126.57v32.664l-12.797-12.797l-7.07-7.07l-12.797-12.797H1634.039z
	 M1684.039,218.07v-32.605l10.5-10.5v43.105H1684.039z M1694.539,228.07v5.5v15v1.5v1.5v7.5v7.5V283v12.07v2.072v19.445l-10.5-10.5
	v-19.445V272.5v-5.93v-7.5v-7.5v-3v-15v-5.5H1694.539z M1684.039,171.322l-5,5l-8,8v-36.768l8-8l5-5l10.5-10.5v36.768
	L1684.039,171.322z M1679.039,84.174v18.238l-8-8l-4.842-4.842l-8-8h18.238h2.604V84.174z M1683.467,120.982l-4.428,4.43l-8,8
	v-24.857l8,8L1683.467,120.982z M1671.039,273.643v-4.072v-3v-7.5v-7.5v-3v-15v-5.5h8v5.5v15v3v7.5v7.5v0.93v14.143v19.445l-8-8
	V273.643z M1671.039,218.07v-19.605l8-8v27.605H1671.039z M1684.039,107.412V89.174V76.57h-12.604h-18.238l-10.5-10.5h18.238h14.143
	h19.461v19.461v14.143v18.238L1684.039,107.412z M1644.055,81.57l8,8h-24.857l8-8l4.43-4.428L1644.055,81.57z M1626.057,76.57l-5,5
	l-8.002,8h-36.768l8-8l5-5l10.5-10.5h36.768L1626.057,76.57z M1703.539,356l-19.5,19.5v-7.663l19.5-19.501V356z M1699.564,338.167
	l-15.525,15.527V324.57h1.928L1699.564,338.167z M1620.287,45.57h20.148h14.143h39.961v10.5h-29.461h-14.143h-41.148L1620.287,45.57
	z M1542.539,45.57h63.605l-10.5,10.5h-49.105h-4V45.57z M1542.539,66.07h4h39.105l-10.5,10.5h-32.605V66.07z M1542.539,81.57h27.605
	l-8,8h-19.605V81.57z M1542.539,104.57h4.605l-4.605,4.605V104.57z M1542.539,123.318l18.748-18.748h36.77l-16.412,16.412
	l7.395,7.395l5,5l13.061,13.061l7.072,7.072l13.061,13.061l5,5l7.395,7.395l16.412-16.41v36.768l-18.748,18.748h-14.775
	l12.094-12.094l-31.57-31.572V157.57h-14h-2.834l-29.762-29.762l-13.904,13.904V123.318z M1542.539,163.143v-7.287l3.428-3.428
	l10.477-10.477l15.619,15.619l5,5h11.977h1.928h0.238h6.834v6.834v0.238v1.928v11.977l5,5l17.428,17.43l-3.244,3.244l-3.535,3.535
	l-5.316,5.314h-23.332v-42.5h-42.5V163.143z M1542.539,211v-3.74v-14.143V180.57h37.5v37.5h-12.547h-3.418h-4.535h-6.189h-3.74
	h-7.07V211z M1556.004,228.07l-28.5,28.5h-20.49l-2.975-2.975v-20.49l28.5-28.5v23.465H1556.004z M1436.038,45.57h5h33.5h7.966h7.07
	h4.465h13.83c0.215-0.023,0.438-0.041,0.67-0.041c0.172,0,0.336,0.012,0.5,0.025c0.057,0.004,0.113,0.01,0.17,0.016h2.83h15h5.5v2.5
	v8h-5.5h-15h-3h-7.5h-1.465h-6.035h-1.035h-51.966h-5h-4.43l-8-8l-2.5-2.5H1436.038z M1361.537,30.07h20.606h9.322l2.5,2.502
	l5.5,5.498h-9.322h-21.214h-21.822l-5.5-5.498l-2.502-2.502H1361.537z M1290.605,32.572l15-15l3.43-3.43l3.43,3.43l2.498,2.498
	l10.002,10l2.5,2.502l5.498,5.498h-47.857L1290.605,32.572z M1260.963,48.07h14.143h67.857h14.143h21.825h21.213h9.322l10.5,10.5
	h-9.322h-21.213h-27.821h-14.143h-76.863h-14.143h-14.889l-10.5-10.5H1260.963z M1246.572,63.57h14.889l13,13h-14.889
	L1246.572,63.57z M1268.002,92.07h-54.93l10.5-10.5l5-5l11.965-11.965l11.965,11.965l5,5L1268.002,92.07z M1224.305,48.375
	l10.197,10.195l2.5,2.5l-2.5,2.5l-13,13l-5,5l-10.5,10.5h-25.395l10.5-10.5l5-5l13-13l5-5L1224.305,48.375z M1210.465,48.07
	l-28.5,28.5h-16.393l28.5-28.5H1210.465z M1091.537,48.07h10h85.465l-19.5,19.5h-65.965h-0.43h-2.07h-7.5h-66.427l19.5-19.5
	H1091.537z M1115.107,81.57h38.395l-13.732,13.732l-5.465,5.465L1115.107,81.57z M1120.465,101.07H991.61l19.5-19.5h89.854
	L1120.465,101.07z M1110.107,76.57h-8.57h-5.572h-4.428h-75.427l4-4h71.427h2.5h7.5h4.57h56.395l-4,4H1110.107z M1030.468,48.07
	l-19.5,19.5h-7.393l19.5-19.5H1030.468z M1016.005,48.07l-19.5,19.5h-35.026l-19.502-19.5H1016.005z M890.109,76.57l28.5-28.5
	l4.613-4.611l4.613,4.611l19.5,19.5l5,5h0.773h13.369h39.489l-4,4l-5,5L979.54,99l-2.072,2.07h-9.999h-20.859h-14.143l-5,5
	l-4.244,4.246l-4.246-4.246l-5-5l-19.5-19.5l-4.684-4.684L890.109,76.57z M899.834,101.07l5,5l5,5l13.389,13.389l13.387-13.389
	h30.857h14.144l5-5h138.854h3.537h3.535h3.535l1.768-1.768l3.232-3.232l2.232-2.232l17.268-17.268h16.393l-15.5,15.5h7.072h7.07
	h25.395h7.07h64.93h7.07l-5-5l-10.5-10.5h14.889l10.498,10.5l10.002,10l9.074,9.076l9.074-9.076h117.929v113.605l-18.072,18.072
	l18.072,18.072v72.75h72.751l18.072,18.071l2.223-2.223l15.85-15.849h7.908h77.033h14.143h35.021v34.124l-28.5,28.5l-10,10v14.143
	V419l-8.5,8.5l-7.072,7.071l7.072,7.071l17.5,17.5l9,9l1,1l5.928,5.929l4.572,4.571v462.394v7.07l5-5l10.035-10.035l1.465-1.465
	l1.5-1.5v28.93v7.07v12.858v21.213v48.537v1.432l2.818,2.82l2.182,2.18l10.5,10.5l2.5,2.5l5,5l12.604,12.605l-10.104,10.104
	l-2.5,2.5l-5,5l-2.5,2.5l-10.5,10.5l-2.182,2.18l-2.818,2.82v1.43v53.279l-53.688,53.688l53.688,53.686v9.063v14.141v36.322v21.215
	v56.821v25.07v56.822v21.215v36.322v14.141v9.063l-53.688,53.686l53.688,53.688v53.279v1.43l2.818,2.82l2.182,2.18l10.5,10.5
	l2.5,2.5l5,5l2.5,2.5l10.104,10.104l-12.604,12.605l-5,5l-2.5,2.5l-10.5,10.5l-2.182,2.18l-2.818,2.82v1.432v48.537v21.213v12.859
	v7.07v28.93l-1.5-1.5l-1.465-1.465l-10.035-10.035l-5-5v7.07v462.393l-4.572,4.572l-5.928,5.928l-1,1l-9,9l-17.5,17.5l-7.072,7.072
	l7.072,7.07l8.5,8.5v7.664v14.143l10,10l28.5,28.5v34.123h-35.021h-14.143h-77.033h-7.908l-15.85-15.85l-2.223-2.223l-18.072,18.072
	h-65.854l-19.886-19.886l-10-10h-14.141h-52.027h-7.07h-25.395h-14.141h-48.797v-15.5h-36v-60.5v-13v-5v-15.5v-5h-5h-4h-5h-176.883
	v-9H887.595h-8.751H741.843v9H564.96h-5h-4h-5v5v15.5v5v13v60.5h-36v15.5h-48.797h-14.141h-25.395h-7.07H367.53H353.39l-10,10
	l-19.886,19.886h-67.104l-18.072-18.072l-2.223,2.223l-15.849,15.85h-7.908h-77.034h-14.143H86.15v-34.123l28.5-28.5l10-10v-14.143
	v-7.664l8.5-8.5l7.071-7.07l-7.071-7.072l-17.5-17.5l-9-9l-1-1l-5.929-5.928l-4.571-4.572v-462.393v-7.07l-5,5l-10.035,10.035
	l-1.465,1.465l-1.5,1.5v-28.93v-7.07v-12.859v-21.213v-48.537v-1.432l-2.819-2.82l-2.181-2.18l-10.5-10.5l-2.5-2.5l-5-5
	l-12.604-12.605l10.104-10.104l2.5-2.5l5-5l2.5-2.5l10.5-10.5l2.181-2.18l2.819-2.82v-1.43v-53.279l53.687-53.688l-53.687-53.686
	v-9.063v-14.141v-36.322v-21.215v-56.822v-25.07v-56.821v-21.215v-36.322V1293.5v-9.063l53.687-53.686l-53.687-53.688v-53.279v-1.43
	l-2.819-2.82l-2.181-2.18l-10.5-10.5l-2.5-2.5l-5-5l-2.5-2.5l-10.104-10.104l12.604-12.605l5-5l2.5-2.5l10.5-10.5l2.181-2.18
	l2.819-2.82v-1.432v-48.537v-21.213v-12.858v-7.07v-28.93l1.5,1.5l1.465,1.465l10.035,10.035l5,5v-7.07V479.643l4.571-4.571
	l5.929-5.929l1-1l9-9l17.5-17.5l7.071-7.071l-7.071-7.071l-8.5-8.5v-7.663v-14.143l-10-10l-28.5-28.5V324.57h35.021h14.143h77.034
	h7.908l15.849,15.849l2.223,2.223l18.072-18.071h72.751v-72.75l18.071-18.072l-18.071-18.072V102.07h117.927l9.075,9.076
	l9.075-9.076l10-10l10.499-10.5h14.889l-10.5,10.5l-5,5h7.07h64.93h7.07h25.394h7.071h7.071l-15.5-15.5h16.394l17.268,17.268
	l2.232,2.232l3.231,3.232l1.769,1.768h3.535h3.535h3.536H778.58l5,5h14.143h30.857l13.387,13.389l13.389-13.389l5-5l5-5
	l17.238-17.238L899.834,101.07z M1690.219,1671.103l-2.18-2.18l-30.605-30.605l30.605-30.604l2.18-2.18l2.82-2.82v-1.43v-8.932
	v-7.07v-14.713l10.5-10.5v35.713v7.07v70.932v7.07v74.289l-10.5-10.5v-53.289v-7.07v-8.93v-1.432L1690.219,1671.103z
	 M1688.039,1675.993v8.941l-46.617-46.617l46.617-46.615v8.941l-37.676,37.674L1688.039,1675.993z M1688.039,1277.367
	l-46.617-46.615l46.617-46.617v8.941l-37.676,37.676l37.676,37.674V1277.367z M1693.039,1556.429v-36.322l10.5-10.5v36.322
	L1693.039,1556.429z M1693.039,1498.892v-51.822v-25.07v-51.821l10.5,10.5v41.321v25.07v41.322L1693.039,1498.892z
	 M1693.039,1348.963v-36.322l10.5,10.5v36.322L1693.039,1348.963z M1693.039,1298.5v-14.713v-7.07v-8.932v-1.43l-2.82-2.82
	l-2.18-2.18l-30.605-30.604l30.605-30.605l2.18-2.18l2.82-2.82v-1.432v-8.93v-7.07v-53.289l10.5-10.5v74.289v7.07v70.932v7.07V1309
	L1693.039,1298.5z M1703.234,1904.302l0.305-0.303v13.465l-10.5-10.5v-12.859L1703.234,1904.302z M1693.039,1872.892v-52.898
	l10.5-10.5v73.898L1693.039,1872.892z M1703.539,1924.534v28.93l-10.5-10.5v-28.93L1703.539,1924.534z M1703.539,1960.534v13.127
	v159.338v3.07v23.93v42.293v7.07v6.508v14.143l10,10l4.5,4.5l5,5l14.428,14.43l-14.428,14.428l-5,5l-4.5,4.5l-10,10l-17,17v-4.115
	v-21.686v-3.07v-14.613v-327.852l1.5,1.5l5,5L1703.539,1960.534z M1676.539,1933.534v1.465v326.389v0.264v3.275v10.602v0.266v10.205
	v23.406v6.166v0.906v4.277v8.959v53.213l-1.5,1.5v-452.393L1676.539,1933.534z M1650.539,2460.069l8,8l6.928,6.93l13.572,13.57
	v7.664l-28.5-28.5V2460.069z M1639.109,2434.499l19.43-19.43v38.857L1639.109,2434.499z M1668.539,2463.927v-58.857l1.5-1.5v61.857
	L1668.539,2463.927z M1671.039,2640.999v-5.5v-15v-3v-7.5v-7.5v-3v-4.072v-19.445l8-8v19.445v14.143v0.93v7.5v7.5v3v15v5.5H1671.039
	z M1679.039,2650.999v27.605l-8-8v-19.605H1679.039z M1664.992,2565.474l-1.025,1.025h-12.092h-77.033h-7.908l-17-17h7.908h77.033
	h14.143h30.021v1.928L1664.992,2565.474z M1671.039,2760.515v-24.857l8,8l4.428,4.43l-4.428,4.428L1671.039,2760.515z
	 M1679.039,2766.657v18.238v2.604h-2.604h-18.238l8-8l4.842-4.842L1679.039,2766.657z M1562.145,2779.499l8,8h-27.605v-8H1562.145z
	 M1542.539,2764.499v-4.605l4.605,4.605H1542.539z M1575.145,2792.499l10.5,10.5h-39.105h-4v-10.5H1575.145z M1584.287,2787.499
	l-8-8h36.768l8.002,8l5,5l10.498,10.5h-36.768l-10.5-10.5L1584.287,2787.499z M1635.197,2787.499l-8-8h24.857l-8,8l-4.428,4.428
	L1635.197,2787.499z M1612.197,2764.499l-16.41-16.412l0.588-0.588h42.664v-42.664l0.588-0.588l16.412,16.41v43.842H1612.197z
	 M1601.375,2742.499l12.797-12.797l7.07-7.07l12.797-12.797v32.664H1601.375z M1639.627,2690.104l-7.395,7.395l-5,5l-13.061,13.061
	l-7.072,7.072l-13.061,13.061l-5,5l-7.395,7.395l16.412,16.412h-36.77l-18.748-18.748v-18.395l13.904,13.904l29.762-29.762h2.834h14
	v-16.834l31.57-31.572l-12.094-12.094h14.775l18.748,18.748v36.768L1639.627,2690.104z M1458.038,2661.251l-17-17l-5-5l-3.93-3.93
	l3.93-3.93l5-5v-14.143v-55.506l11.405,11.405l42.389,42.389l-1.961,1.962l-19.833,19.832l-12.762,12.762l12.762,12.764l26.001,26
	l5,5l5.727,5.727l-36.728,36.727v-40.916v-14.143L1458.038,2661.251z M1329.467,2792.499h14.143h44.929h10h37.5h1.928l-1.928,1.928
	l-11.072,11.072h-9.322h-17.105h-4.107h-5.893h-31.929h-14.143h-66.863l12.998-13H1329.467z M1293.604,2787.499l10.498-10.5
	l4.934-4.934l4.932,4.934l10.5,10.5H1293.604z M1328.109,2776.999h60.429v10.5h-49.929L1328.109,2776.999z M1436.038,2787.499h-37.5
	v-10.5h37.5h5h12.428l-10.5,10.5h-1.928H1436.038z M1441.038,2766.999v-108.605l17,17v91.605H1441.038z M1499.039,2620.474v10.49
	v7.07v10.93v7.07v13.68l-24.622-24.621L1499.039,2620.474z M1504.039,2601.331l-2.137,2.136l-42.389-42.389l-11.579-11.579h55.854
	h14.143l5-5l3.93-3.93l3.93,3.93l5,5l17,17l15,15h7.908h6.234h7.908h33.008l-34.918,34.918l-3.918-3.918l-5-5l-26-26l-14.57-14.572
	l-14.572,14.572L1504.039,2601.331z M1598.373,2640.999h-17.299l-1.791-1.791l-7.07-7.072l-19.639-19.637h17.299l10.988,10.988
	l7.07,7.072L1598.373,2640.999z M1538.016,2581.499h0.857l26,26h-17.299h-7.07h-10.93h-7.07h-10.488L1538.016,2581.499z
	 M1545.504,2612.499l23.174,23.172l5.326,5.328h-10.654h-0.275l-28.5-28.5H1545.504z M1564.074,2650.999h3.418h12.547v37.5h-37.5
	v-12.547v-14.143v-3.74v-7.07h7.07h3.74h6.189H1564.074z M1585.039,2693.499v-42.5h23.332l5.316,5.314l3.535,3.535l3.244,3.244
	l-17.428,17.43l-5,5v11.977v1.928v0.238v6.834h-6.834h-0.238h-1.928h-11.977l-5,5l-15.619,15.619l-10.477-10.477l-3.428-3.428
	v-7.287v-12.428H1585.039z M1651.434,2650.999h4.605v4.605L1651.434,2650.999z M1641.434,2640.999h-14.143h-14.777l-12.998-13
	l-4.512-4.512l41.988-41.988h13.707h5.34v8.803v12.197v7.5v7.5v3v15v5.5H1641.434z M1324.416,2524.613h25.395l19.5,19.5h-25.395
	L1324.416,2524.613z M1329.775,2544.113h-24.297h-5h-49v-4v-5v-10.5h58.797L1329.775,2544.113z M1356.881,2524.613h52.027l19.5,19.5
	h-52.027L1356.881,2524.613z M1215.479,2514.613v-10.5h31v10.5H1215.479z M1246.479,2524.613v19.5h-31v-19.5H1246.479z
	 M1206.479,2514.613v-10.5h4v10.5H1206.479z M1210.479,2524.613v19.5h-4v-19.5H1210.479z M1206.479,2499.113v-69.5v-4v-5v-5v-10.5h4
	v15.5v5v13v60.5H1206.479z M1024.596,2415.613v-10.5h176.883v10.5v5v5v4v69.5v15.5h-6.5h-23.883v-89v-10H1024.596z
	 M605.343,2549.113h273.501h8.751h273.501v10.5H887.595h-8.751H605.343V2549.113z M595.343,2415.613v10v89H571.46h-6.5v-15.5v-69.5
	v-4v-5v-5v-10.5h176.883v10.5H595.343z M887.595,2544.113h-8.751H605.343v-19.5v-10v-89h273.501h8.751h273.501v89v10v19.5H887.595z
	 M746.843,2415.613v-10.5v-5v-4h132.001h8.751h132.001v4v5v10.5H887.595h-8.751H746.843z M555.96,2514.613v-10.5h4v10.5H555.96z
	 M559.96,2524.613v19.5h-4v-19.5H559.96z M555.96,2499.113v-60.5v-13v-5v-15.5h4v10.5v5v5v4v69.5H555.96z M519.96,2514.613v-10.5h31
	v10.5H519.96z M550.96,2524.613v19.5h-31v-19.5H550.96z M416.628,2524.613h25.395l-19.5,19.5h-25.395L416.628,2524.613z
	 M390.058,2544.113H338.03l19.5-19.5h52.027L390.058,2544.113z M456.163,2524.613h58.797v10.5v5v4h-49h-5h-24.297L456.163,2524.613z
	 M329.15,2631.392l3.929,3.93l-3.929,3.93l-5,5l-17,17l-15,15v14.143v40.916l-36.728-36.727l5.728-5.727l5-5l26-26l12.763-12.764
	l-12.763-12.762l-19.833-19.832l-1.336-1.337l43.014-43.014l10.155-10.155v54.256v14.143L329.15,2631.392z M421.577,2792.499h14.143
	h40.865l13,13H422.72h-14.143H376.65h-5.894h-4.106h-17.106h-9.322l-11.071-11.072l-1.929-1.928h1.929h37.5h10H421.577z
	 M376.65,2787.499v-10.5h60.427l-10.5,10.5H376.65z M440.72,2787.499l10.5-10.5l4.933-4.934l4.933,4.934l10.5,10.5H440.72z
	 M366.65,2787.499h-37.5h-5h-1.929l-10.5-10.5h12.429h5h37.5V2787.499z M234.44,2687.743l7.072-7.072l19.638-19.637v13.68
	l-12.798,12.797l-7.072,7.072l-8.63,8.631v-13.68L234.44,2687.743z M232.65,2682.464v-10.654v-0.275l28.5-28.5v10.93l-23.173,23.172
	L232.65,2682.464z M245.65,2704.356l2.702-2.703l43.798,43.799v19.047h-21h-7.5h-7.5h-3h-15h-5.5v-14.605v-14.143v-18.395
	L245.65,2704.356z M238.15,2779.499h15h3h7.5h7.5h28.929l8,8H271.15h-7.5h-7.5h-3h-15h-5.5v-8H238.15z M307.15,2766.999v-91.605
	l17-17v108.605H307.15z M238.15,2792.499h15h3h7.5h7.5h41.929l10.5,10.5H271.15h-7.5h-7.5h-3h-15h-5.5v-10.5H238.15z
	 M168.813,2747.499l0.589,0.588l-16.411,16.412H109.15v-43.842l16.411-16.41l0.589,0.588v42.664H168.813z M131.15,2742.499v-32.664
	l12.796,12.797l7.071,7.07l12.796,12.797H131.15z M81.15,2650.999v32.605l-10.5,10.5v-43.105H81.15z M70.65,2640.999v-5.5v-15v-1.5
	v-1.5v-7.5v-7.5v-16.43v-12.07v-2.072v-19.445l10.5,10.5v19.445v14.143v5.93v7.5v7.5v3v15v5.5H70.65z M81.15,2697.747l5-5l8-8
	v36.768l-8,8l-5,5l-10.5,10.5v-36.768L81.15,2697.747z M47.15,901.106l4.5,4.5v69.465l-0.304,0.304l0.304,0.303v93.898
	l-12.175,12.176l-5,5v335.247v25.07v335.248l5,5l12.175,12.176v93.898l-0.304,0.303l0.304,0.305v69.465l-4.5,4.5l-5,5v7.07v122.393
	v14.143v105.221l-16.501,16.502v-593.438v-13.072v-184.713v-25.07v-184.712v-13.072V630.778l16.501,16.501V752.5v14.143v122.394
	v7.07L47.15,901.106z M44.313,1096.588l7.338,7.338v94.289v7.07v50.932v7.07V1319v6.07v44.393v9.607v42.929v25.07v42.93v9.607
	v44.393v6.07v55.713v7.07v50.932v7.07v94.289l-7.338,7.338l-4.837,4.836v-330.248v-25.07v-330.247L44.313,1096.588z M61.65,2230.013
	v-14.143v-6.508v-7.07v-42.293v-23.93v-3.07v-159.338v-13.127l10.5-10.5l5-5l1.5-1.5v327.852v14.613v3.07v21.686v4.115l-17-17
	l-10-10l-4.5-4.5l-5-5l-14.429-14.428l14.429-14.43l5-5l4.5-4.5L61.65,2230.013z M61.954,1904.302l10.196-10.197v12.859l-10.5,10.5
	v-13.465L61.954,1904.302z M61.65,1883.392v-73.898l10.5,10.5v52.898L61.65,1883.392z M72.15,1914.034v28.93l-10.5,10.5v-28.93
	L72.15,1914.034z M81.15,2389.569l5,5l1.5,1.5l2.5,2.5v71.857l-4,4l-5,5l-19.5,19.5v-128.857v-3.539v-9.816l0.394-0.393
	l16.606-16.607v25.801v3.873v3.539v10.602v1.471v2.07L81.15,2389.569z M99.722,2474.999l6.929-6.93l8-8v7.664l-28.5,28.5v-7.664
	L99.722,2474.999z M95.15,2465.427v-61.857l1.5,1.5v58.857L95.15,2465.427z M106.65,2453.927v-38.857l19.429,19.43L106.65,2453.927z
	 M90.15,2384.427l-1.5-1.5v-53.213v-8.959v-4.277v-0.906v-6.166v-23.406v-10.205v-0.266v-10.602v-3.275v-0.264v-326.389v-1.465
	l1.5-1.5V2384.427z M86.15,2784.896v-18.238l8,8l4.841,4.842l8,8H88.754H86.15V2784.896z M81.722,2748.087l4.429-4.43l8-8v24.857
	l-8-8L81.722,2748.087z M94.15,2670.604l-8,8v-27.605h8V2670.604z M94.15,2595.427v4.072v3v7.5v7.5v3v15v5.5h-8v-5.5v-15v-3v-7.5
	v-7.5v-0.93v-14.143v-19.445l8,8V2595.427z M81.15,2761.657v18.238v12.604h12.604h18.237l10.5,10.5h-18.237H90.111H70.65v-19.461
	v-14.143v-18.238L81.15,2761.657z M121.134,2787.499l-8-8h24.857l-8,8l-4.43,4.428L121.134,2787.499z M139.134,2792.499l5-5l8-8
	h36.769l-8,8l-5,5l-10.5,10.5h-36.769L139.134,2792.499z M101.222,2566.499l-1.025-1.025l-14.046-14.047v-1.928h30.021h14.143
	h77.034h7.908l-17,17h-7.908h-77.034H101.222z M109.15,2650.999h4.605l-4.605,4.605V2650.999z M109.15,2640.999v-5.5v-15v-3v-7.5
	v-7.5v-12.197v-8.803h5.34h13.706l41.989,41.988l-4.512,4.512l-12.999,13h-14.776h-14.143H109.15z M177.257,2630.56l7.071-7.072
	l10.989-10.988h17.298l-19.638,19.637l-7.072,7.072l-1.79,1.791h-17.298L177.257,2630.56z M196.513,2635.671l23.173-23.172h10.93
	l-28.5,28.5h-0.276h-10.653L196.513,2635.671z M224.686,2607.499h-7.07h-17.298l26-26h0.857l26,26h-10.489h-7.07H224.686z
	 M241.317,2581.499l-14.572-14.572l-14.57,14.572l-26,26l-5,5l-3.918,3.918l-34.918-34.918h33.009h7.908h6.234h7.908l15-15l17-17
	l5-5l3.929-3.93l3.93,3.93l5,5h14.143h57.104l-11.579,11.579l-43.014,43.014l-2.761-2.761L241.317,2581.499z M290.771,2645.093
	l-24.62,24.621v-13.68v-7.07v-10.93v-7.07v-10.49L290.771,2645.093z M74.97,1197.967l2.181,2.18l30.604,30.605l-30.604,30.604
	l-2.181,2.18l-2.819,2.82v1.43v8.932v7.07v14.713l-10.5,10.5v-35.713v-7.07v-70.932v-7.07v-74.289l10.5,10.5v53.289v7.07v8.93v1.432
	L74.97,1197.967z M77.15,1193.076v-8.941l46.616,46.617l-46.616,46.615v-8.941l37.675-37.674L77.15,1193.076z M77.15,1591.702
	l46.616,46.615l-46.616,46.617v-8.941l37.675-37.676l-37.675-37.674V1591.702z M72.15,1312.641v36.322l-10.5,10.5v-36.322
	L72.15,1312.641z M72.15,1370.178v51.821v25.07v51.822l-10.5-10.5v-41.322v-25.07v-41.321L72.15,1370.178z M72.15,1520.106v36.322
	l-10.5-10.5v-36.322L72.15,1520.106z M72.15,1570.569v14.713v7.07v8.932v1.43l2.819,2.82l2.181,2.18l30.604,30.604l-30.604,30.605
	l-2.181,2.18l-2.819,2.82v1.432v8.93v7.07v53.289l-10.5,10.5v-74.289v-7.07v-70.932v-7.07v-35.713L72.15,1570.569z M61.954,964.768
	l-0.304,0.304v-13.465l10.5,10.5v12.858L61.954,964.768z M72.15,996.178v52.898l-10.5,10.5v-73.898L72.15,996.178z M61.65,944.536
	v-28.93l10.5,10.5v28.93L61.65,944.536z M61.65,908.536v-13.128V736.071V733v-23.929v-42.292v-7.072v-6.508v-14.143l-10-10l-4.5-4.5
	l-5-5l-14.429-14.428l14.429-14.43l5-5l4.5-4.5l10-9.999l17-17v4.116V580v3.071v14.612v327.853l-1.5-1.5l-5-5L61.65,908.536z
	 M88.65,935.536v-1.465V607.684v-0.266v-3.275v-10.602v-0.266v-10.204v-23.407v-6.166v-0.905v-4.276v-8.961v-53.213l1.5-1.5v452.394
	L88.65,935.536z M114.65,409l-8-8l-6.929-6.929L86.15,380.5v-7.663l28.5,28.5V409z M126.079,434.571L106.65,454v-38.857
	L126.079,434.571z M96.65,405.143V464l-1.5,1.5v-61.857L96.65,405.143z M94.15,228.07v5.5v15v3v7.5v7.5v3v4.072v19.445l-8,8v-19.445
	V267.5v-0.93v-7.5v-7.5v-3v-15v-5.5H94.15z M86.15,218.07v-27.605l8,8v19.605H86.15z M100.196,303.596l1.025-1.025h12.092h77.034
	h7.908l17,17h-7.908h-77.034h-14.143H86.15v-1.928L100.196,303.596z M94.15,108.555v24.857l-8-8l-4.429-4.43l4.429-4.428
	L94.15,108.555z M86.15,102.412V84.174V81.57h2.604h18.237l-8,8l-4.841,4.842L86.15,102.412z M203.045,89.57l-8-8h27.605v8H203.045z
	 M222.65,104.57v4.605l-4.605-4.605H222.65z M190.045,76.57l-10.5-10.5h39.105h4v10.5H190.045z M180.902,81.57l8,8h-36.769l-8-8
	l-5-5l-10.5-10.5h36.769l10.5,10.5L180.902,81.57z M129.991,81.57l8,8h-24.857l8-8l4.428-4.428L129.991,81.57z M152.991,104.57
	l16.411,16.412l-0.589,0.588H126.15v42.664l-0.589,0.588l-16.411-16.41V104.57H152.991z M163.813,126.57l-12.796,12.797l-7.071,7.07
	l-12.796,12.797V126.57H163.813z M125.562,178.965l7.395-7.395l5-5l13.062-13.061l7.071-7.072l13.062-13.061l5-5l7.395-7.395
	l-16.411-16.412h36.769l18.748,18.748v18.395l-13.905-13.904l-29.762,29.762h-2.833h-14v16.834l-31.571,31.572l12.096,12.094
	h-14.776l-18.748-18.748v-36.768L125.562,178.965z M267.317,261.57l5-5l19.833-19.832l12.763-12.762l-12.763-12.764l-26-26l-5-5
	l-5.728-5.727l36.728-36.727v40.916v14.143l15,15l17,17l5,5l3.929,3.93l-3.929,3.93l-5,5v14.143v62.75h-62.751h-14.143l-5,5
	l-3.93,3.93l-3.929-3.93l-5-5l-17-17l-15-15h-7.908h-6.234h-7.908h-33.009l34.918-34.918l3.918,3.918l5,5l26,26l14.57,14.572
	l14.572-14.572l19.833-19.832l5-5L267.317,261.57z M266.15,248.596v-10.49v-7.07v-10.93v-7.07v-13.68l24.62,24.621L266.15,248.596z
	 M435.72,76.57h-14.143H376.65h-10h-37.5h-1.929l1.929-1.928l11.071-11.072h9.322h17.106h4.106h5.894h31.927h14.143h66.865l-13,13
	H435.72z M471.585,81.57l-10.5,10.5l-4.933,4.934l-4.933-4.934l-10.5-10.5H471.585z M437.077,92.07H376.65v-10.5h49.927
	L437.077,92.07z M329.15,81.57h37.5v10.5h-37.5h-5h-12.429l10.5-10.5h1.929H329.15z M324.15,102.07v108.605l-17-17V102.07H324.15z
	 M166.817,228.07h17.298l1.79,1.791l7.072,7.072l19.638,19.637h-17.298l-10.989-10.988l-7.071-7.072L166.817,228.07z
	 M227.175,287.57h-0.857l-26-26h17.298h7.07h10.93h7.07h10.489L227.175,287.57z M219.686,256.57l-23.173-23.172l-5.327-5.328h10.653
	h0.276l28.5,28.5H219.686z M201.115,218.07h-3.419H185.15v-37.5h37.5v12.547v14.143V211v7.07h-7.071h-3.74h-6.188H201.115z
	 M180.15,175.57v42.5h-23.333l-5.316-5.314l-3.535-3.535l-3.244-3.244l17.429-17.43l5-5V171.57v-1.928v-0.238v-6.834h6.833h0.238
	h1.929h11.976l5-5l15.619-15.619l10.477,10.477l3.429,3.428v7.287v12.428H180.15z M113.756,218.07h-4.605v-4.605L113.756,218.07z
	 M123.756,228.07h14.143h14.776l12.999,13l4.512,4.512l-41.989,41.988H114.49h-5.34v-8.803V266.57v-7.5v-7.5v-3v-15v-5.5H123.756z
	 M505.615,76.57h-14.889l13-13h14.889L505.615,76.57z M524.65,64.605l11.965,11.965l5,5l10.5,10.5h-54.93l10.5-10.5l5-5
	L524.65,64.605z M664.222,81.57h89.856l19.502,19.5H644.722L664.222,81.57z M630.882,100.768l-5.464-5.465L611.686,81.57h38.394
	L630.882,100.768z M673.65,76.57h-4.429h-5.571h-8.571h-48.394l-4-4h56.394h4.571h7.5h2.5h71.428l4,4H673.65z M837.354,48.07
	l4.613-4.611l4.613,4.611l28.5,28.5l0.316,0.316l-4.684,4.684l-19.5,19.5l-5,5l-4.246,4.246l-4.244-4.246l-5-5H818.58h-20.859
	h-9.998L785.65,99l-17.428-17.43l-5-5l-4.002-4h39.49h13.369h0.773l5-5L837.354,48.07z M823.213,48.07l-19.502,19.5h-35.025
	l-19.5-19.5H823.213z M742.115,48.07l19.498,19.5h-7.393l-19.5-19.5H742.115z M663.65,48.07h10h46.928l19.5,19.5H673.65h-7.5h-2.071
	h-0.429h-65.965l-19.5-19.5H663.65z M571.115,48.07l28.5,28.5h-16.394l-28.5-28.5H571.115z M540.882,48.375l10.197,10.195l5,5l13,13
	l5,5l10.5,10.5h-25.394l-10.5-10.5l-5-5l-13-13l-2.5-2.5l2.5-2.5L540.882,48.375z M437.723,32.572l2.501-2.502l10-10l2.499-2.498
	l3.43-3.43l3.43,3.43l15,15l5.499,5.498h-47.857L437.723,32.572z M371.222,32.572l2.5-2.502h9.322h20.606h22.431l-2.501,2.502
	l-5.499,5.498h-21.824h-21.213h-9.322L371.222,32.572z M355.722,48.07h9.322h21.213h21.824h14.143h67.857h14.143h29.892l-10.5,10.5
	h-14.889h-14.142H417.72h-14.143h-27.82h-21.213h-9.322L355.722,48.07z M232.65,48.07v-2.5h5.5h15h2.83
	c0.056-0.006,0.112-0.012,0.17-0.016c0.163-0.014,0.328-0.025,0.5-0.025c0.232,0,0.454,0.018,0.67,0.041h13.83h4.465h7.07h7.965
	h33.5h5h14.929l-2.5,2.5l-8,8h-4.429h-5h-51.965h-1.035h-6.035h-1.465h-7.5h-3h-15h-5.5V48.07z M232.65,66.07h5.5h15h3h7.5h7.5
	h52.429l-10.5,10.5H271.15h-7.5h-7.5h-3h-15h-5.5V66.07z M232.65,81.57h5.5h15h3h7.5h7.5h36.929l-8,8H271.15h-7.5h-7.5h-3h-15h-5.5
	V81.57z M232.65,133.318v-14.143V104.57h5.5h15h3h7.5h7.5h21v19.047l-43.798,43.799l-2.702-2.703l-13-13V133.318z M232.65,165.855
	l8.63,8.631l7.072,7.072l12.798,12.797v13.68l-19.638-19.637l-7.072-7.072l-1.79-1.791V165.855z M232.65,197.26v-10.654l5.327,5.328
	l23.173,23.172v10.93l-28.5-28.5V197.26z M232.65,228.07v-23.465l28.5,28.5v20.49l-2.976,2.975h-20.489l-28.5-28.5H232.65z
	 M222.65,45.57v10.5h-4h-49.105l-10.5-10.5H222.65z M70.65,45.57h39.961h14.143h20.148l10.5,10.5h-41.148h-14.143H70.65V45.57z
	 M70.65,99.674V85.531V66.07h19.461h14.143h18.237l-10.5,10.5H93.754H81.15v12.604v18.238l-10.5,10.5V99.674z M70.65,124.055
	l10.5,10.5l5,5l8,8v36.768l-8-8l-5-5l-10.5-10.5V124.055z M70.65,174.965l10.5,10.5v32.605h-10.5V174.965z M70.65,297.143v-2.072
	V283v-16.43v-7.5v-7.5v-1.5v-1.5v-15v-5.5h10.5v5.5v15v3v7.5v7.5v5.93v14.143v19.445l-10.5,10.5V297.143z M79.222,324.57h1.929
	v29.124l-15.526-15.527L79.222,324.57z M61.65,348.336l19.5,19.501v7.663L61.65,356V348.336z M61.65,502.541V499V370.143l19.5,19.5
	l5,5l4,4V470.5l-2.5,2.5l-1.5,1.5l-5,5l-2.5,2.5v2.071v1.47v10.602v3.541v3.873v25.799l-16.606-16.606l-0.394-0.394V502.541z
	 M50.15,120.174v-14.143V66.07h10.5v29.461v14.143v41.148l-10.5-10.5V120.174z M50.15,154.465l10.5,10.5v53.105h-10.5V154.465z
	 M50.15,319.57v-1.928v-4.572v-9.57v-36.93v-7.5v-7.5v-3v-15v-5.5h10.5v5.5v15v1.5v1.5v7.5v7.5V293v2.07v12.072v12.428H50.15z
	 M39.9,490.605V361.48l11.75-11.75v2.412v8v46.929v10v85.284L39.9,490.605z M7.071,605.129L42.15,570.05l5-5v-7.071v-45.98
	l0.751,0.751l1.77,1.771l0.479,0.479l1.5,1.5l3.322,3.322l1.771,1.771l4.907,4.907l15.279,15.28l-3.083,3.083L61.65,557.058l-10,10
	l-4.5,4.5l-5,4.999l-28.571,28.572l28.571,28.57l5,5l4.5,4.5v6.508v7.072v52.292V743v152.408v3.128l-4.5-4.5V761.643V747.5v-95.221
	v-7.072l-5-5l-16.501-16.5l-4.635-4.636L7.071,605.129z M51.65,2451.999v10v46.928v8v2.412l-11.75-11.75v-129.125l11.75-11.75
	V2451.999z M56.743,2347.479l-1.771,1.77l-3.322,3.322l-1.5,1.5l-0.479,0.479l-1.77,1.771l-0.751,0.75v-45.98v-7.07l-5-5
	l-35.079-35.078l13.943-13.943l4.635-4.637l16.501-16.5l5-5v-7.072v-95.221v-14.143v-132.393l4.5-4.5v3.127v152.408v33.93v52.293
	v7.07v6.508l-4.5,4.5l-5,5l-28.571,28.572l28.571,28.57l5,5l4.5,4.5l10,10l12.196,12.195l3.083,3.084l-15.279,15.279
	L56.743,2347.479z M61.65,2513.069l19.5-19.5v7.664l-19.5,19.5V2513.069z M65.624,2530.901l15.526-15.525v29.123h-1.929
	L65.624,2530.901z M144.902,2823.499h-20.148h-14.143H70.65v-10.5h29.461h14.143h41.148L144.902,2823.499z M222.65,2823.499h-63.605
	l10.5-10.5h49.105h4V2823.499z M222.65,2802.999h-4h-39.105l10.5-10.5h32.605V2802.999z M222.65,2787.499h-27.605l8-8h19.605
	V2787.499z M222.65,2764.499h-4.605l4.605-4.605V2764.499z M222.65,2745.751l-18.748,18.748h-36.769l16.411-16.412l-7.395-7.395
	l-5-5l-13.062-13.061l-7.071-7.072l-13.062-13.061l-5-5l-7.395-7.395l-16.411,16.41v-36.768l18.748-18.748h14.776l-12.096,12.094
	l31.571,31.572v16.834h14h2.833l29.762,29.762l13.905-13.904V2745.751z M222.65,2705.927v7.287l-3.429,3.428l-10.477,10.477
	l-15.619-15.619l-5-5H176.15h-1.929h-0.238h-6.833v-6.834v-0.238v-1.928v-11.977l-5-5l-17.429-17.43l3.244-3.244l3.535-3.535
	l5.316-5.314h23.333v42.5h42.5V2705.927z M222.65,2658.069v3.74v14.143v12.547h-37.5v-37.5h12.546h3.419h4.535h6.188h3.74h7.071
	V2658.069z M209.186,2640.999l28.5-28.5h20.489l2.976,2.975v20.49l-28.5,28.5v-23.465H209.186z M329.15,2823.499h-5h-33.5h-7.965
	h-7.07h-4.465h-13.83c-0.216,0.023-0.438,0.041-0.67,0.041c-0.172,0-0.337-0.012-0.5-0.025c-0.058-0.004-0.114-0.01-0.17-0.016
	h-2.83h-15h-5.5v-2.5v-8h5.5h15h3h7.5h1.465h6.035h1.035h51.965h5h4.429l8,8l2.5,2.5H329.15z M403.65,2838.999h-20.606h-9.322
	l-2.5-2.502l-5.5-5.498h9.322h21.213h21.824l5.499,5.498l2.501,2.502H403.65z M474.582,2836.497l-15,15l-3.43,3.43l-3.43-3.43
	l-2.499-2.498l-10-10l-2.501-2.502l-5.499-5.498h47.857L474.582,2836.497z M504.224,2820.999h-14.143h-67.857h-14.143h-21.824
	h-21.213h-9.322l-10.5-10.5h9.322h21.213h27.82h14.143h76.865h14.142h14.889l10.5,10.5H504.224z M518.615,2805.499h-14.889l-13-13
	h14.889L518.615,2805.499z M497.186,2776.999h54.93l-10.5,10.5l-5,5l-11.965,11.965l-11.965-11.965l-5-5L497.186,2776.999z
	 M540.882,2820.694l-10.196-10.195l-2.5-2.5l2.5-2.5l13-13l5-5l10.5-10.5h25.394l-10.5,10.5l-5,5l-13,13l-5,5L540.882,2820.694z
	 M554.722,2820.999l28.5-28.5h16.394l-28.5,28.5H554.722z M673.65,2820.999h-10h-85.465l19.5-19.5h65.965h0.429h2.071h7.5h66.428
	l-19.5,19.5H673.65z M650.079,2787.499h-38.394l13.732-13.732l5.464-5.465L650.079,2787.499z M644.722,2767.999H773.58l-19.502,19.5
	h-89.856L644.722,2767.999z M655.079,2792.499h8.571h5.571h4.429h75.428l-4,4H673.65h-2.5h-7.5h-4.571h-56.394l4-4H655.079z
	 M734.721,2820.999l19.5-19.5h7.393l-19.498,19.5H734.721z M749.186,2820.999l19.5-19.5h35.025l19.502,19.5H749.186z
	 M875.08,2792.499l-28.5,28.5l-4.613,4.611l-4.613-4.611l-19.5-19.5l-5-5h-0.773h-13.369h-39.49l4.002-4l5-5l17.428-17.43
	l2.072-2.07h9.998h20.859h14.143l5-5l4.244-4.246l4.246,4.246l5,5l19.5,19.5l4.684,4.684L875.08,2792.499z M865.355,2767.999l-5-5
	l-5-5l-13.389-13.389l-13.387,13.389h-30.857H783.58l-5,5H639.722h-3.536h-3.535h-3.535l-1.769,1.768l-3.231,3.232l-2.232,2.232
	l-17.268,17.268h-16.394l15.5-15.5h-7.071h-7.071h-25.394h-7.07h-64.93h-7.07l5,5l10.5,10.5h-14.889l-10.499-10.5l-10-10
	l-9.075-9.076l-9.075,9.076H329.15v-113.605l18.071-18.072l-18.071-18.072v-64.256l3.88-3.88h52.027h7.07h25.395h14.141h29.297h5h49
	h50v-2.5v-2.5v-19.5h6.5h23.883v19.5v5v20.5h283.501h8.751h283.501v-20.5v-5v-19.5h23.883h6.5v19.5v2.5v2.5h50h49h5h29.297h14.141
	h25.395h7.07h52.027l2.63,2.63v65.506l-18.072,18.072l18.072,18.072v113.605h-117.929l-9.074-9.076l-9.074,9.076l-10.002,10
	l-10.498,10.5h-14.889l10.5-10.5l5-5h-7.07h-64.93h-7.07h-25.395h-7.07h-7.072l15.5,15.5h-16.393l-17.268-17.268l-2.232-2.232
	l-3.232-3.232l-1.768-1.768h-3.535h-3.535h-3.537H986.61l-5-5h-14.144h-30.857l-13.387-13.389l-13.389,13.389l-5,5l-5,5
	l-17.24,17.238L865.355,2767.999z M1259.572,2792.499h14.889l-13,13h-14.889L1259.572,2792.499z M1240.537,2804.464l-11.965-11.965
	l-5-5l-10.5-10.5h54.93l-10.5,10.5l-5,5L1240.537,2804.464z M1100.965,2787.499h-89.854l-19.5-19.5h128.854L1100.965,2787.499z
	 M1134.305,2768.302l5.465,5.465l13.732,13.732h-38.395L1134.305,2768.302z M1091.537,2792.499h4.428h5.572h8.57h48.395l4,4h-56.395
	h-4.57h-7.5h-2.5h-71.427l-4-4H1091.537z M927.836,2820.999l-4.613,4.611l-4.613-4.611l-28.5-28.5l-0.316-0.316l4.684-4.684
	l19.5-19.5l5-5l4.246-4.246l4.244,4.246l5,5h14.143h20.859h9.999l2.072,2.07l17.428,17.43l5,5l4,4h-39.489h-13.369h-0.773l-5,5
	L927.836,2820.999z M941.977,2820.999l19.502-19.5h35.026l19.5,19.5H941.977z M1023.075,2820.999l-19.5-19.5h7.393l19.5,19.5
	H1023.075z M1101.537,2820.999h-10h-46.927l-19.5-19.5h66.427h7.5h2.07h0.43h65.965l19.5,19.5H1101.537z M1194.072,2820.999
	l-28.5-28.5h16.393l28.5,28.5H1194.072z M1224.305,2820.694l-10.197-10.195l-5-5l-13-13l-5-5l-10.5-10.5h25.395l10.5,10.5l5,5l13,13
	l2.5,2.5l-2.5,2.5L1224.305,2820.694z M1327.465,2836.497l-2.5,2.502l-10.002,10l-2.498,2.498l-3.43,3.43l-3.43-3.43l-15-15
	l-5.5-5.498h47.857L1327.465,2836.497z M1393.966,2836.497l-2.5,2.502h-9.322h-20.606h-22.432l2.502-2.502l5.5-5.498h21.822h21.214
	h9.322L1393.966,2836.497z M1409.466,2820.999h-9.322h-21.213h-21.825h-14.143h-67.857h-14.143h-29.891l10.5-10.5h14.889h14.143
	h76.863h14.143h27.821h21.213h9.322L1409.466,2820.999z M1532.539,2820.999v2.5h-5.5h-15h-2.83c-0.057,0.006-0.113,0.012-0.17,0.016
	c-0.164,0.014-0.328,0.025-0.5,0.025c-0.232,0-0.455-0.018-0.67-0.041h-13.83h-4.465h-7.07h-7.966h-33.5h-5h-14.93l2.5-2.5l8-8h4.43
	h5h51.966h1.035h6.035h1.465h7.5h3h15h5.5V2820.999z M1532.539,2802.999h-5.5h-15h-3h-7.5h-7.5h-52.431l10.5-10.5h41.931h7.5h7.5h3
	h15h5.5V2802.999z M1532.539,2787.499h-5.5h-15h-3h-7.5h-7.5h-36.931l8-8h28.931h7.5h7.5h3h15h5.5V2787.499z M1532.539,2735.751
	v14.143v14.605h-5.5h-15h-3h-7.5h-7.5h-21.001v-19.047l43.8-43.799l2.701,2.703l13,13V2735.751z M1532.539,2703.214l-8.631-8.631
	l-7.07-7.072l-12.799-12.797v-13.68l19.637,19.637l7.072,7.072l1.791,1.791V2703.214z M1532.539,2671.81v10.654l-5.328-5.328
	l-23.172-23.172v-10.93l28.5,28.5V2671.81z M1532.539,2640.999v23.465l-28.5-28.5v-20.49l2.975-2.975h20.49l28.5,28.5H1532.539z
	 M1542.539,2823.499v-10.5h4h49.105l10.5,10.5H1542.539z M1694.539,2823.499h-39.961h-14.143h-20.148l-10.5-10.5h41.148h14.143
	h29.461V2823.499z M1694.539,2769.396v14.143v19.461h-19.461h-14.143h-18.238l10.5-10.5h18.238h12.604v-12.604v-18.238l10.5-10.5
	V2769.396z M1694.539,2745.015l-10.5-10.5l-5-5l-8-8v-36.768l8,8l5,5l10.5,10.5V2745.015z M1694.539,2694.104l-10.5-10.5v-32.605
	h10.5V2694.104z M1694.539,2571.927v2.072v12.07v16.43v7.5v7.5v1.5v1.5v15v5.5h-10.5v-5.5v-15v-3v-7.5v-7.5v-5.93v-14.143v-19.445
	l10.5-10.5V2571.927z M1685.967,2544.499h-1.928v-29.123l15.525,15.525L1685.967,2544.499z M1703.539,2520.733l-19.5-19.5v-7.664
	l19.5,19.5V2520.733z M1703.539,2366.53v3.539v128.857l-19.5-19.5l-5-5l-4-4v-71.857l2.5-2.5l1.5-1.5l5-5l2.5-2.5v-2.07v-1.471
	v-10.602v-3.539v-3.873v-25.801l16.605,16.607l0.395,0.393V2366.53z M1715.039,2748.896v14.143v39.961h-10.5v-29.461v-14.143
	v-41.148l10.5,10.5V2748.896z M1715.039,2714.604l-10.5-10.5v-53.105h10.5V2714.604z M1715.039,2549.499v1.928v4.572v9.57v36.93v7.5
	v7.5v3v15v5.5h-10.5v-5.5v-15v-1.5v-1.5v-7.5v-7.5v-26.43v-2.07v-12.072v-12.428H1715.039z M1725.289,2378.464v129.125l-11.75,11.75
	v-2.412v-8v-46.928v-10v-85.285L1725.289,2378.464z M1718.039,2304.021v7.07v45.98l-0.752-0.75l-1.77-1.771l-0.479-0.479l-1.5-1.5
	l-3.322-3.322l-1.771-1.77l-4.906-4.908l-15.279-15.279l3.082-3.084l12.197-12.195l10-10l4.5-4.5l5-5l28.57-28.57l-28.57-28.572
	l-5-5l-4.5-4.5v-6.508v-7.07v-52.293v-33.93v-152.408v-3.127l4.5,4.5v132.393v14.143v95.221v7.072l5,5l16.5,16.5l4.635,4.637
	l13.943,13.943l-35.078,35.078L1718.039,2304.021z"/>
</svg>
