<?xml version="1.0" encoding="iso-8859-1"?>
<!-- Generator: Adobe Illustrator 16.0.0, SVG Export Plug-In . SVG Version: 6.00 Build 0)  -->
<!DOCTYPE svg PUBLIC "-//W3C//DTD SVG 1.1//EN" "http://www.w3.org/Graphics/SVG/1.1/DTD/svg11.dtd">
<svg xmlns="http://www.w3.org/2000/svg" xmlns:xlink="http://www.w3.org/1999/xlink" version="1.1" id="Capa_1" x="0px" y="0px" width="512px" height="512px" viewBox="0 0 32 32" style="enable-background:new 0 0 32 32;" xml:space="preserve">
<g>
	<g>
		<path d="M31.977,5.003H16.659v10.525h15.315V5.003H31.977z M30.814,14.366H17.82V6.164h12.994V14.366z" fill="#FFFFFF"/>
		<rect x="26.834" y="7.174" width="3.157" height="0.582" fill="#FFFFFF"/>
		<rect x="26.814" y="8.137" width="3.158" height="0.58" fill="#FFFFFF"/>
		<rect x="26.843" y="9.18" width="3.158" height="0.581" fill="#FFFFFF"/>
		<path d="M19.426,9.743l0.024,0.009l0.095,0.226l-0.01,0.023c-0.288,0.652-0.27,0.67-0.221,0.719l0.383,0.375    c0.017,0.016,0.044,0.026,0.066,0.026c0.021,0,0.088,0,0.654-0.256l0.021-0.011l0.234,0.095l0.01,0.023    c0.267,0.659,0.293,0.659,0.359,0.659h0.542c0.067,0,0.097,0,0.345-0.661l0.01-0.024l0.231-0.094l0.022,0.009    c0.384,0.162,0.606,0.244,0.664,0.244c0.024,0,0.053-0.011,0.068-0.026l0.387-0.376c0.049-0.049,0.068-0.068-0.234-0.707    l-0.012-0.023l0.096-0.226l0.021-0.009c0.678-0.263,0.678-0.288,0.678-0.356v-0.53c0-0.068,0-0.097-0.678-0.339L23.16,8.504    l-0.096-0.226l0.011-0.024c0.288-0.651,0.268-0.672,0.221-0.719l-0.385-0.374c-0.017-0.016-0.043-0.026-0.065-0.026    c-0.021,0-0.088,0-0.654,0.256l-0.022,0.011l-0.233-0.094l-0.01-0.024c-0.267-0.659-0.294-0.659-0.359-0.659h-0.543    c-0.065,0-0.096,0-0.344,0.661l-0.01,0.023l-0.232,0.094l-0.021-0.009C20.032,7.232,19.809,7.15,19.75,7.15    c-0.023,0-0.051,0.011-0.066,0.026l-0.386,0.377c-0.049,0.048-0.069,0.067,0.233,0.707l0.012,0.023L19.447,8.51l-0.022,0.009    c-0.676,0.261-0.676,0.287-0.676,0.354v0.531C18.749,9.473,18.749,9.501,19.426,9.743z M21.305,8.267    c0.484,0,0.879,0.387,0.879,0.861c0,0.476-0.395,0.861-0.879,0.861s-0.878-0.386-0.878-0.861S20.82,8.267,21.305,8.267z" fill="#FFFFFF"/>
		<path d="M23.79,11.378l-0.127,0.051l-0.013-0.005c-0.209-0.088-0.332-0.133-0.363-0.133c-0.014,0-0.028,0.006-0.036,0.014    l-0.21,0.206c-0.025,0.025-0.038,0.037,0.128,0.386l0.006,0.013l-0.053,0.123l-0.013,0.004c-0.368,0.143-0.368,0.157-0.368,0.194    v0.29c0,0.037,0,0.053,0.368,0.185l0.015,0.005l0.052,0.123l-0.006,0.013c-0.156,0.356-0.146,0.366-0.12,0.392l0.209,0.205    c0.009,0.009,0.024,0.014,0.037,0.014s0.047,0,0.356-0.14l0.013-0.006l0.128,0.052l0.005,0.013c0.146,0.36,0.16,0.36,0.197,0.36    h0.296c0.037,0,0.053,0,0.188-0.361l0.006-0.014l0.127-0.051l0.013,0.005c0.209,0.089,0.331,0.133,0.362,0.133    c0.014,0,0.027-0.005,0.037-0.014l0.209-0.206c0.027-0.026,0.039-0.036-0.129-0.384l-0.006-0.014l0.053-0.123l0.013-0.005    c0.369-0.143,0.369-0.157,0.369-0.194V12.22c0-0.037,0-0.054-0.37-0.185l-0.014-0.006l-0.051-0.123l0.006-0.013    c0.155-0.356,0.146-0.366,0.119-0.393l-0.209-0.205c-0.01-0.008-0.023-0.014-0.037-0.014c-0.012,0-0.047,0-0.356,0.14    l-0.013,0.006l-0.127-0.05l-0.004-0.014c-0.147-0.36-0.162-0.36-0.199-0.36h-0.295c-0.037,0-0.053,0-0.188,0.361L23.79,11.378z     M24.137,11.9c0.266,0,0.479,0.211,0.479,0.47c0,0.259-0.216,0.471-0.479,0.471s-0.479-0.212-0.479-0.471    C23.658,12.111,23.872,11.9,24.137,11.9z" fill="#FFFFFF"/>
		<path d="M24.309,10.128l0.008,0.004l0.033,0.078l-0.004,0.008c-0.101,0.228-0.094,0.233-0.076,0.251l0.133,0.13    c0.006,0.005,0.017,0.009,0.023,0.009c0.008,0,0.03,0,0.229-0.089l0.008-0.003l0.081,0.032l0.003,0.009    c0.093,0.229,0.104,0.229,0.126,0.229h0.188c0.022,0,0.032,0,0.119-0.231l0.004-0.008l0.08-0.032l0.008,0.002    c0.133,0.057,0.211,0.086,0.23,0.086c0.01,0,0.02-0.004,0.023-0.009l0.135-0.132c0.017-0.017,0.023-0.023-0.082-0.246    l-0.004-0.008l0.033-0.078l0.008-0.003c0.236-0.092,0.236-0.101,0.236-0.124V9.818c0-0.023,0-0.033-0.235-0.118l-0.009-0.002    l-0.033-0.079l0.004-0.009c0.1-0.227,0.093-0.233,0.076-0.25l-0.133-0.131c-0.006-0.005-0.017-0.009-0.023-0.009    s-0.03,0-0.229,0.09l-0.008,0.004l-0.08-0.033l-0.005-0.008c-0.093-0.229-0.102-0.229-0.125-0.229h-0.188    c-0.022,0-0.032,0-0.119,0.229L24.74,9.282l-0.081,0.032L24.65,9.311c-0.133-0.056-0.211-0.085-0.23-0.085    c-0.009,0-0.018,0.004-0.023,0.01l-0.133,0.13c-0.018,0.017-0.023,0.024,0.082,0.246L24.35,9.62l-0.033,0.079l-0.008,0.004    c-0.235,0.091-0.235,0.1-0.235,0.122v0.186C24.072,10.034,24.072,10.044,24.309,10.128z M24.961,9.615    c0.169,0,0.307,0.134,0.307,0.3c0,0.164-0.138,0.299-0.307,0.299c-0.168,0-0.307-0.135-0.307-0.299    C24.654,9.749,24.793,9.615,24.961,9.615z" fill="#FFFFFF"/>
		<path d="M0,26.997h15.316V16.472H0V26.997z M1.161,17.633h12.994v8.203H1.161V17.633z" fill="#FFFFFF"/>
		<rect x="10.175" y="18.879" width="3.157" height="0.581" fill="#FFFFFF"/>
		<rect x="10.156" y="19.841" width="3.157" height="0.581" fill="#FFFFFF"/>
		<rect x="10.184" y="20.885" width="3.157" height="0.581" fill="#FFFFFF"/>
		<rect x="2.032" y="20.138" width="6.605" height="1.09" fill="#FFFFFF"/>
		<rect x="2.032" y="21.789" width="5.045" height="1.089" fill="#FFFFFF"/>
		<rect x="2.032" y="23.44" width="9.945" height="1.09" fill="#FFFFFF"/>
		<path d="M16.684,16.437v10.524H32V16.437H16.684z M30.839,25.8H17.846v-8.202h12.993V25.8z" fill="#FFFFFF"/>
		<rect x="26.857" y="18.553" width="3.158" height="0.581" fill="#FFFFFF"/>
		<rect x="26.84" y="19.515" width="3.157" height="0.58" fill="#FFFFFF"/>
		<rect x="26.867" y="20.558" width="3.156" height="0.581" fill="#FFFFFF"/>
		<path d="M23.053,24.274c0.246-0.246,0.641-1.531,0.641-1.531s-1.285,0.395-1.531,0.64c-0.246,0.246-0.246,0.646,0.001,0.892    C22.407,24.521,22.807,24.521,23.053,24.274z" fill="#FFFFFF"/>
		<path d="M18.688,25.221h7.875v-0.548l0.008-0.044c0.003-0.06,0.009-0.604,0.009-0.662c0-1.937-1.382-2.998-1.382-2.998    c-0.69-0.592-1.588-0.952-2.568-0.952c-2.181,0-3.949,1.77-3.949,3.95c0,0.06,0.006,0.604,0.01,0.662v0.592H18.688z     M19.641,24.033h0.81v-0.263h-0.753c0-0.002-0.057,0-0.057,0c0.03-0.678,0.289-1.354,0.776-1.888l0.021-0.022l0.037,0.033    l0.539,0.539l0.17-0.171l-0.574-0.571c0.52-0.475,1.178-0.746,1.879-0.776h0.041c0,0,0.018-0.002,0.016,0.01v0.799h0.217v-0.809    c0.105,0.004,0.213,0.019,0.317,0.032c0.603,0.08,1.162,0.34,1.614,0.755l-0.57,0.571l0.159,0.16l0.549-0.55l0.03-0.024    l0.025,0.035c0.475,0.519,0.746,1.176,0.777,1.877h-0.809v0.263l0.812-0.001c0,0,0.001,0.562-0.002,0.596l-6.025,0.001    C19.637,24.594,19.643,24.069,19.641,24.033z" fill="#FFFFFF"/>
		<circle cx="28.625" cy="24.239" r="0.907" fill="#FFFFFF"/>
		<circle cx="19.751" cy="18.613" r="0.635" fill="#FFFFFF"/>
		<circle cx="21.812" cy="18.614" r="0.635" fill="#FFFFFF"/>
		<circle cx="23.87" cy="18.614" r="0.635" fill="#FFFFFF"/>
		<path d="M0.036,15.565h15.316V5.039H0.036V15.565z M1.198,6.2h12.993v8.203H1.198V6.2z" fill="#FFFFFF"/>
		<path d="M6.368,7.427L5.836,9.074c0.476,0.149,0.822,0.592,0.822,1.117c0,0.263-0.088,0.504-0.234,0.699l1.371,1.059    c0.373-0.489,0.595-1.098,0.595-1.758C8.39,8.898,7.539,7.8,6.368,7.427z" fill="#FFFFFF"/>
		<path d="M5.209,11.432c-0.644,0-1.167-0.524-1.167-1.168c0-0.644,0.523-1.168,1.167-1.168c0.12,0,0.236,0.019,0.346,0.053    l0.532-1.648C5.81,7.412,5.515,7.364,5.209,7.364c-1.599,0-2.899,1.301-2.899,2.899c0,1.598,1.3,2.9,2.899,2.9    c0.938,0,1.774-0.448,2.305-1.143l-1.372-1.057C5.929,11.246,5.591,11.432,5.209,11.432z" fill="#FFFFFF"/>
		<rect x="10.211" y="7.447" width="3.157" height="0.58" fill="#FFFFFF"/>
		<rect x="10.192" y="8.408" width="3.158" height="0.581" fill="#FFFFFF"/>
		<rect x="10.22" y="9.452" width="3.158" height="0.58" fill="#FFFFFF"/>
		<path d="M11.634,10.694v0.857c0.31,0.01,0.559,0.265,0.559,0.577c0,0.318-0.259,0.578-0.578,0.578    c-0.318,0-0.578-0.26-0.578-0.578c0-0.008,0.001-0.015,0.002-0.021H10.18c0,0.007,0,0.014,0,0.021    c0,0.791,0.644,1.436,1.435,1.436c0.792,0,1.436-0.645,1.436-1.436C13.05,11.344,12.416,10.704,11.634,10.694z" fill="#FFFFFF"/>
	</g>
</g>
<g>
</g>
<g>
</g>
<g>
</g>
<g>
</g>
<g>
</g>
<g>
</g>
<g>
</g>
<g>
</g>
<g>
</g>
<g>
</g>
<g>
</g>
<g>
</g>
<g>
</g>
<g>
</g>
<g>
</g>
</svg>
