<?xml version="1.0" encoding="utf-8"?>
<!-- Generator: Adobe Illustrator 16.0.0, SVG Export Plug-In . SVG Version: 6.00 Build 0)  -->
<!DOCTYPE svg PUBLIC "-//W3C//DTD SVG 1.1//EN" "http://www.w3.org/Graphics/SVG/1.1/DTD/svg11.dtd">
<svg version="1.1" id="Слой_1" xmlns="http://www.w3.org/2000/svg" xmlns:xlink="http://www.w3.org/1999/xlink" x="0px" y="0px"
	 width="100%" viewBox="0 0 1306.002 1438.714" enable-background="new 0 0 1306.002 1438.714"
	 xml:space="preserve">
<linearGradient id="SVGID_1_" gradientUnits="userSpaceOnUse" x1="285.6003" y1="731.5454" x2="1591.6028" y2="731.5454" gradientTransform="matrix(1 0 0 -1 -285.5996 1030.7236)">
	<stop  offset="0" style="stop-color:#BFA866"/>
	<stop  offset="0.1012" style="stop-color:#D6C799"/>
	<stop  offset="0.2218" style="stop-color:#BE9B5E"/>
	<stop  offset="0.3541" style="stop-color:#DFC483"/>
	<stop  offset="0.4942" style="stop-color:#C9AA5F"/>
	<stop  offset="0.6187" style="stop-color:#D5C390"/>
	<stop  offset="0.7549" style="stop-color:#B69C54"/>
	<stop  offset="0.8911" style="stop-color:#DDCA92"/>
	<stop  offset="1" style="stop-color:#BFA866"/>
</linearGradient>
<path fill="url(#SVGID_1_)" d="M1306.002,168.281v-100h-100v18H752h-13.045L652.674,0l-86.279,86.281H554H100.001V68.28H0v100.001
	h18v260H0v100h100v-18h454h12.163l88.078,88.076l88.079-88.076h54.682h409v18h100v-100h-18v-260H1306.002z M1216.002,125.781h32.95
	v32.5h-32.95V125.781z M100.001,96.281H554h2.395H572h5.606l10-10l65.066-65.068l65.068,65.068l10,10h6.258h14.955h3.045H1206v14.5
	H797h-33.545h-21.214h-23.137l-14.5-14.5l-10.001-10L653,44.674l-41.605,41.607l-10,10l-14.5,14.5h-23.787h-21.213H491H100.001
	V96.281z M1206.002,125.781v17H795.456l-17-17h18.546H1206.002z M100.001,125.781H491h35.896l-17,17H100.001V125.781z M10,158.281
	V78.28h80.001v32.501H42.953v47.5H10z M90.001,125.781v32.5H57.953v-32.5H90.001z M42.953,168.281v260H28v-260H42.953z M90,518.281
	H10v-80h32.953v47.5H90V518.281z M90,470.781H57.953v-32.5H90V470.781z M1206.002,500.281h-409h-44.682H734h-2.893l-10,10
	l-66.866,66.862l-66.864-66.862l-10-10H572h-15.837H554H100v-14.5h418h23.663h21.214h24.92l14.5,14.5l10,10l41.606,41.604
	l41.607-41.604l10.001-10l14.5-14.5h25.596h21.214h39.181h400V500.281z M100,470.781v-17h409.664l17,17h-8.663H100z
	 M1206.002,470.781h-400h-24.181l17-17h407.181V470.781z M1206.002,448.781H803.822h-21.213l-5,5l-17,17h-25.597H713.8l-15,15
	l-14.501,14.5l-10.002,10l-20.394,20.393l-20.395-20.393l-10-10l-14.5-14.5l-15-15h-21.213h-24.921l-16.998-17l-5-5h-21.214H100
	v-20.5H57.953v-260h42.048v-20.5h404.895h21.213l5-5l16.999-17h23.787h21.213l15-15l14.5-14.5l9.998-10L653,65.887l20.393,20.395
	l10,10l14.501,14.5l15,15h21.213h23.138l17,17l5,5h21.213h405.546v20.5h42.95v260h-42.95L1206.002,448.781L1206.002,448.781z
	 M1248.952,438.281v32.5h-32.95v-32.5H1248.952z M1296.002,438.281v80h-80v-32.5h47.95v-47.5H1296.002z M1263.952,428.281v-260
	h14.05v260H1263.952z M1263.952,158.281v-47.5h-47.95v-32.5h80v80H1263.952z"/>
<linearGradient id="SVGID_2_" gradientUnits="userSpaceOnUse" x1="306.0466" y1="48.0786" x2="1571.1536" y2="48.0786" gradientTransform="matrix(1 0 0 -1 -285.5996 1030.7236)">
	<stop  offset="0" style="stop-color:#BFA866"/>
	<stop  offset="0.1012" style="stop-color:#D6C799"/>
	<stop  offset="0.2218" style="stop-color:#BE9B5E"/>
	<stop  offset="0.3541" style="stop-color:#DFC483"/>
	<stop  offset="0.4942" style="stop-color:#C9AA5F"/>
	<stop  offset="0.6187" style="stop-color:#D5C390"/>
	<stop  offset="0.7549" style="stop-color:#B69C54"/>
	<stop  offset="0.8911" style="stop-color:#DDCA92"/>
	<stop  offset="1" style="stop-color:#BFA866"/>
</linearGradient>
<path fill="url(#SVGID_2_)" d="M1244.091,639.934h-2.035h-5.035h-12.857h-10.287h-1.784h-3.535h-3.535h-2.072h-423.5v-15.719v-13
	H657.947v-51.811v-5.715v-1.466v-25.646h-10v25.646v1.466v5.715v51.811H526.448v13v15.719H103.055h-0.232h-1.84h-3.535h-3.5h-0.034
	H81.841H68.982h-5.035h-2.034H20.447v41.466v2.034v5.035v12.857v12.072v3.534v3.536v2.072l9.411,9.41l7.071,7.07l1.518,1.52v568.891
	l-1.518,1.521l-7.071,7.068l-9.411,9.41v2.072v3.535v3.535v12.072v12.857v5.035v2.035v41.465h41.466h2.034h5.035H81.84h12.071h3.534
	h3.535h2.072l423.394-0.045v17.719v11h253v-11v-17.719l423.5,0.045h2.072h3.535h3.535h12.071h12.857h5.035h2.035h41.466v-41.465
	v-2.035v-5.035v-12.857v-12.072v-3.535v-3.535v-2.072l-9.412-9.41l-7.069-7.068l-1.625-1.625v-568.68l1.625-1.625l7.069-7.072
	l9.412-9.41v-2.072v-3.535v-3.534v-12.072V688.47v-5.034V681.4v-41.465h-41.463V639.934z M25.447,1343.646l1.036-1.033l6.43,6.428
	l-7.466,7.465V1343.646z M38.447,1405.041h-13v-13.107h13V1405.041z M38.447,1386.933h-13v-20.393v-2.965l11-11l2,2V1386.933z
	 M38.447,1343.505l-2,2l-6.429-6.428l1.036-1.037l5-5l2.393-2.393V1343.505z M104.841,662.934l4.089,4.091l6.411,6.409h-12.822
	h-0.036l-5.035-5.034l-2.018-2.019l-2.982-2.981l-0.465-0.466H104.841z M136.555,673.434l-10.501-10.5h506.394v724H126.161
	l10.394-10.393l0.107-0.107h467.284v-703H136.555z M146.555,683.434h447.393v683h-496.5v-33.393h-33.5v-7.965v-7.07v-12.857v-21.215
	V766.041v-21.215v-12.857V724.9v-7.966h33.5v-33.5h7.966h7.069h12.858H146.555L146.555,683.434z M78.27,1366.433H63.947v-14.322
	L78.27,1366.433z M64.019,1338.041h28.429v28.393H92.41L64.019,1338.041z M88.377,1376.541h4.069h2.966l-2.966,2.965l-0.553,0.553
	l-6.875,6.875h-7.145l-10.394-10.393H88.377z M88.377,673.434H67.482l10.5-10.5h6.931l6.981,6.982l0.553,0.553l2.966,2.965h-2.966
	H88.377z M92.447,683.504v28.43H64.019L92.447,683.504z M78.377,683.434l-14.431,14.431v-14.431H78.377z M92.447,650.541l5,5
	l2.395,2.393H86.982l-2-2l6.43-6.428L92.447,650.541z M86.841,644.934l1.035,1.037l-6.43,6.429l-7.465-7.466H86.841L86.841,644.934z
	 M43.447,644.934h20.5h2.966l11,11l-2,2H43.447V644.934z M43.447,662.934h27.466l-6.966,6.966l-3.534,3.534l-6.466,6.466
	l-3.534,3.534l-6.966,6.966V662.934L43.447,662.934z M43.447,697.469l10.5-10.5v20.896v4.069v2.966l-2.965-2.966l-0.553-0.553
	l-6.982-6.981V697.469z M43.447,711.469l0.466,0.465l2.981,2.982l2.019,2.018l5.034,5.035v0.035v12.822l-6.41-6.41l-4.09-4.088
	V711.469z M43.447,745.541l10.5,10.5v537.893l-10.5,10.5V745.541z M43.447,1325.646l4.09-4.09l6.41-6.41v12.822v0.035l-5.034,5.035
	l-2.019,2.018l-2.981,2.982l-0.466,0.465V1325.646z M43.447,1345.576l6.982-6.982l0.553-0.553l2.965-2.965v2.965v4.068v20.896
	l-10.5-10.5V1345.576z M43.447,1359.576l6.966,6.965l3.534,3.535v6.355h6.357l0.107,0.107l3.534,3.535l6.857,6.857H43.447V1359.576z
	 M26.483,707.363l-1.036-1.037v-12.857l7.466,7.465L26.483,707.363z M38.447,719.326l-2.393-2.394l-5-5l-1.036-1.034l6.429-6.431
	l2,2V719.326z M38.447,695.398l-2,2l-11-11v-2.966v-20.5h13V695.398z M38.447,657.934h-13v-13h13V657.934z M66.912,1405.041h-2.966
	h-20.5v-13.107h32.357l2.107,2.107L66.912,1405.041z M86.841,1405.041H73.982l7.465-7.465l6.43,6.43L86.841,1405.041z
	 M97.447,1394.433l-5,5l-1.035,1.037l-6.43-6.43l2.107-2.107h12.857L97.447,1394.433z M104.948,1386.933H92.09l0.356-0.357
	l2.982-2.982l2.018-2.018l5.035-5.035h0.036h12.822l-6.411,6.412L104.948,1386.933z M647.947,624.215v10v752.718v5v1.344v6.719
	v3.281v6.719v6.438v1.281v2.719v7.281v1H536.448v-1v-10v-7.719v-10h-10l-413.327-0.02l6.416-6.418l1.625-1.625h511.285h5v-2.5v-2.5
	v-724v-2.5v-2.5h-5H121.054l-1.518-1.518l-6.481-6.482h413.394h10v-10v-5.719v-10v-3h111.499L647.947,624.215L647.947,624.215z
	 M1219.162,644.934h12.857l-7.465,7.466l-6.43-6.429L1219.162,644.934z M1227.733,1366.433l14.215-14.215v14.215H1227.733z
	 M1238.521,1376.541l-10.393,10.393h-7.146l-6.875-6.875l-0.553-0.553l-2.965-2.965h2.965h4.07H1238.521z M1213.593,1366.433h-0.037
	v-28.393h28.393v0.037L1213.593,1366.433z M1208.556,1333.041v33.393H711.948v-683h447.5h21.215h12.857h7.07h7.965v33.5h33.393
	v616.107H1208.556z M1169.341,1376.433l0.106,0.107l10.394,10.393H673.447v-724h506.501l-10.5,10.5h-467.5v703H1169.341
	L1169.341,1376.433z M1213.556,711.934v-28.43l28.393,28.394v0.036H1213.556z M1227.625,683.434h14.322v14.322L1227.625,683.434z
	 M1217.625,673.434h-4.069h-2.965l2.965-2.965l0.553-0.553l6.982-6.982h6.93l10.5,10.5H1217.625z M1208.556,655.541l5-5l1.035-1.035
	l6.43,6.428l-2,2h-12.856L1208.556,655.541z M1214.021,662.934l-0.465,0.466l-2.982,2.981l-2.018,2.019l-5.035,5.034h-0.035h-12.822
	l6.41-6.409l4.088-4.091H1214.021z M779.448,1399.996h-10v10v7.719v10v1H657.947v-1v-7.281v-2.719v-1.281v-6.438v-6.719v-3.281
	v-6.719v-1.346v-5V634.215v-10v-3h111.501v3v10v5.719v10h0.5h9.5l413.469,0.031l-6.45,6.451l-1.519,1.518H673.447h-5v2.5v2.5v724
	v2.5v2.5h5h511.395l1.625,1.625l6.418,6.418L779.448,1399.996z M1201.054,1386.933l-3.98-3.98l-6.41-6.412h12.822h0.035l5.035,5.035
	l2.018,2.018l2.982,2.982l0.356,0.357H1201.054L1201.054,1386.933z M1213.556,1399.433l-5-5l-2.5-2.5h12.856l2.107,2.107l-6.43,6.43
	L1213.556,1399.433z M1219.162,1405.041l-1.037-1.035l6.431-6.43l7.465,7.465H1219.162L1219.162,1405.041z M1262.448,1405.041
	h-20.394h-2.965l-11-11l2.106-2.107h32.251L1262.448,1405.041L1262.448,1405.041z M1262.448,1386.933h-27.251l6.857-6.857
	l3.535-3.535l0.106-0.107h6.25v-6.25l0.107-0.105l3.535-3.535l6.858-6.857L1262.448,1386.933L1262.448,1386.933z M1262.448,1352.613
	l-10.394,10.393v-20.895v-4.07v-2.965l2.965,2.965l0.553,0.553l6.876,6.875V1352.613L1262.448,1352.613z M1262.448,1338.396
	l-0.356-0.355l-2.983-2.982l-2.018-2.018l-5.035-5.035v-0.035v-12.822l6.41,6.41l3.982,3.982V1338.396z M1262.448,1304.328
	l-10.394-10.396l-0.107-0.105V756.148l0.107-0.107l10.394-10.393V1304.328z M1262.448,724.435l-3.982,3.98l-6.41,6.41v-12.822
	v-0.035l5.035-5.035l2.018-2.018l2.983-2.982l0.356-0.356V724.435z M1262.448,704.506l-6.876,6.875l-0.553,0.553l-2.965,2.966
	v-2.966v-4.069v-20.896l10.394,10.394V704.506L1262.448,704.506z M1262.448,690.291l-6.857-6.857l-3.535-3.534l-0.107-0.107v-6.356
	h-6.356l-3.535-3.535l-6.965-6.965h27.357L1262.448,690.291L1262.448,690.291z M1262.448,657.934h-32.357l-2-2l11-11h2.965h20.394
	L1262.448,657.934L1262.448,657.934z M1280.557,1405.041h-13.107v-13.107h13.107V1405.041z M1280.557,1366.541v20.393h-13.107
	v-32.25l2.107-2.107l11,11V1366.541z M1279.52,1342.613l1.037,1.035v12.855l-7.465-7.465L1279.52,1342.613z M1269.948,1333.041l5,5
	l1.035,1.037l-6.428,6.428l-2.107-2.107v-12.857L1269.948,1333.041z M1274.948,711.934l-5,5l-2.5,2.5v-12.856l2.107-2.107
	l6.428,6.431L1274.948,711.934z M1280.557,706.326l-1.037,1.037l-6.428-6.431l7.465-7.465V706.326z M1280.557,683.434v2.966l-11,11
	l-2.107-2.107v-32.356h13.107V683.434z M1280.557,657.934h-13.107v-13h13.107V657.934z"/>
</svg>
