<?xml version="1.0" encoding="iso-8859-1"?>
<!-- Generator: Adobe Illustrator 19.0.0, SVG Export Plug-In . SVG Version: 6.00 Build 0)  -->
<svg xmlns="http://www.w3.org/2000/svg" xmlns:xlink="http://www.w3.org/1999/xlink" version="1.1" id="Capa_1" x="0px" y="0px" viewBox="0 0 490 490" style="enable-background:new 0 0 490 490;" xml:space="preserve" width="512px" height="512px">
<g>
	<path d="M367.276,0H122.724c-12.068,0-21.885,9.817-21.885,21.885v446.231c0,12.068,9.817,21.885,21.885,21.885h244.551   c12.068,0,21.885-9.817,21.885-21.885V21.885C389.16,9.817,379.343,0,367.276,0z M373.848,468.115c0,3.626-2.946,6.572-6.572,6.572   H122.724c-3.626,0-6.572-2.946-6.572-6.572V21.885c0-3.626,2.946-6.572,6.572-6.572h244.551c3.626,0,6.572,2.946,6.572,6.572   V468.115z" fill="#FFFFFF"/>
	<path d="M273.427,441.259h-56.854c-4.725,0-8.568,3.851-8.568,8.583c0,4.725,3.843,8.568,8.568,8.568h56.854   c4.725,0,8.568-3.851,8.568-8.583C281.995,445.102,278.152,441.259,273.427,441.259z" fill="#FFFFFF"/>
	<path d="M196.431,38.864h42.042c4.725,0,8.576-3.85,8.576-8.583c0-4.725-3.85-8.568-8.576-8.568h-42.042   c-4.725,0-8.568,3.851-8.568,8.583C187.862,35.021,191.705,38.864,196.431,38.864z" fill="#FFFFFF"/>
	<path d="M269.987,38.879c4.725,0,8.576-3.851,8.576-8.583s-3.851-8.583-8.576-8.583c-4.725,0-8.568,3.851-8.568,8.583   S265.262,38.879,269.987,38.879z" fill="#FFFFFF"/>
	<path d="M293.562,38.879c4.725,0,8.576-3.851,8.576-8.583s-3.851-8.583-8.576-8.583c-4.725,0-8.568,3.851-8.568,8.583   S288.836,38.879,293.562,38.879z" fill="#FFFFFF"/>
	<path d="M126.542,425.054h236.917V45.304H126.542V425.054z M141.854,60.617h206.292v349.125H141.854V60.617z" fill="#FFFFFF"/>
	<path d="M313.901,94.706H176.099c-9.484,0-17.244,7.76-17.244,17.245v91.96c0,9.484,7.76,17.245,17.244,17.245h137.802   c9.485,0,17.245-7.76,17.245-17.245v-91.96C331.146,102.466,323.386,94.706,313.901,94.706z M315.833,203.91   c0,1.029-0.903,1.932-1.932,1.932H176.099c-1.029,0-1.932-0.903-1.932-1.932v-91.96c0-1.029,0.903-1.932,1.932-1.932h137.802   c1.03,0,1.932,0.903,1.932,1.932V203.91z" fill="#FFFFFF"/>
	<path d="M226.693,185.958l48.458-28.027l-48.458-28.028V185.958z" fill="#FFFFFF"/>
	<path d="M265.584,304.441v-57.407h-41.242v57.407l-20.023-20.449l-29.459,28.786l70.102,71.605l70.103-71.605l-29.459-28.786   L265.584,304.441z M293.397,313.017l-48.435,49.474l-48.435-49.474l7.552-7.387l35.575,36.345v-79.628h10.617v79.628l35.575-36.345   L293.397,313.017z" fill="#FFFFFF"/>
</g>
<g>
</g>
<g>
</g>
<g>
</g>
<g>
</g>
<g>
</g>
<g>
</g>
<g>
</g>
<g>
</g>
<g>
</g>
<g>
</g>
<g>
</g>
<g>
</g>
<g>
</g>
<g>
</g>
<g>
</g>
</svg>
