<?xml version="1.0" encoding="iso-8859-1"?>
<!-- Generator: Adobe Illustrator 19.0.0, SVG Export Plug-In . SVG Version: 6.00 Build 0)  -->
<svg xmlns="http://www.w3.org/2000/svg" xmlns:xlink="http://www.w3.org/1999/xlink" version="1.1" id="Capa_1" x="0px" y="0px" viewBox="0 0 490 490" style="enable-background:new 0 0 490 490;" xml:space="preserve" width="512px" height="512px">
<g>
	<path d="M174.944,312.957l145.689-77.774l-145.689-77.774V312.957z M190.257,182.935l97.868,52.248l-97.868,52.248V182.935z" fill="#f29900"/>
	<path d="M389.158,468.115V21.885C389.158,9.817,379.341,0,367.274,0H122.726c-12.068,0-21.885,9.817-21.885,21.885v446.231   c0,12.068,9.817,21.885,21.885,21.885h244.548C379.341,490,389.158,480.183,389.158,468.115z M373.846,468.115   c0,3.626-2.946,6.572-6.572,6.572H122.726c-3.622,0-6.572-2.946-6.572-6.572V21.885c0-3.626,2.95-6.572,6.572-6.572h244.548   c3.626,0,6.572,2.946,6.572,6.572V468.115z" fill="#f29900"/>
	<path d="M273.425,441.259h-56.85c-4.725,0-8.572,3.851-8.572,8.583c0,4.725,3.847,8.568,8.572,8.568h56.85   c4.725,0,8.569-3.851,8.569-8.576C281.993,445.109,278.15,441.259,273.425,441.259z" fill="#f29900"/>
	<path d="M196.432,38.864h42.046c4.725,0,8.568-3.851,8.568-8.576c0-4.725-3.843-8.576-8.568-8.576h-42.046   c-4.725,0-8.572,3.851-8.572,8.583C187.86,35.021,191.707,38.864,196.432,38.864z" fill="#f29900"/>
	<path d="M269.993,38.879c4.725,0,8.568-3.851,8.568-8.583c0-4.733-3.843-8.583-8.568-8.583s-8.576,3.851-8.576,8.583   C261.417,35.029,265.268,38.879,269.993,38.879z" fill="#f29900"/>
	<path d="M293.568,38.879c4.725,0,8.568-3.851,8.568-8.583c0-4.733-3.843-8.583-8.568-8.583c-4.725,0-8.576,3.851-8.576,8.583   C284.992,35.029,288.842,38.879,293.568,38.879z" fill="#f29900"/>
	<path d="M126.543,425.057h236.916V45.307H126.543V425.057z M141.855,60.619h206.291v349.125H141.855V60.619z" fill="#f29900"/>
</g>
<g>
</g>
<g>
</g>
<g>
</g>
<g>
</g>
<g>
</g>
<g>
</g>
<g>
</g>
<g>
</g>
<g>
</g>
<g>
</g>
<g>
</g>
<g>
</g>
<g>
</g>
<g>
</g>
<g>
</g>
</svg>
